<svg version="1.1" xmlns="http://www.w3.org/2000/svg" viewBox="0 0 294 278.5" width="294" height="278.5">
  <!-- svg-source:excalidraw -->
  
  <defs>
    <style class="style-fonts">
      @font-face {
        font-family: "Virgil";
        src: url("https://excalidraw.com/Virgil.woff2");
      }
      @font-face {
        font-family: "Cascadia";
        src: url("https://excalidraw.com/Cascadia.woff2");
      }
    </style>
  </defs>
  <rect x="0" y="0" width="294" height="278.5" fill="#ffffff"></rect><g stroke-linecap="round" transform="translate(10 10) rotate(0 61.5 17.5)"><path d="M8.75 0 M8.75 0 C43.04 0.32, 76.68 -1.22, 114.25 0 M8.75 0 C48.47 -1.81, 86.7 -1.53, 114.25 0 M114.25 0 C118.81 0.51, 123.97 4.49, 123 8.75 M114.25 0 C117.89 -0.16, 121.02 4.21, 123 8.75 M123 8.75 C121.89 13.88, 123.95 18.39, 123 26.25 M123 8.75 C123.16 14.22, 123.5 21.17, 123 26.25 M123 26.25 C121.45 31.12, 120 35.82, 114.25 35 M123 26.25 C124.68 31.35, 120.91 34.6, 114.25 35 M114.25 35 C71.41 34.77, 31.02 35.98, 8.75 35 M114.25 35 C76.87 34.03, 41.93 35.54, 8.75 35 M8.75 35 C1.76 36.83, 0.54 31.26, 0 26.25 M8.75 35 C3.85 36.21, 0.75 31.87, 0 26.25 M0 26.25 C0.09 21.73, 0.7 14.52, 0 8.75 M0 26.25 C-0.17 21.64, 0.9 17.95, 0 8.75 M0 8.75 C0.67 1.11, 4.1 -0.51, 8.75 0 M0 8.75 C0.85 1.46, 4.65 -0.29, 8.75 0" stroke="#000000" stroke-width="1" fill="none"></path></g><g transform="translate(52.83333396911621 18.30000000000001) rotate(0 18.66666603088379 9.200000000000003)"><text x="18.66666603088379" y="0" font-family="Helvetica, Segoe UI Emoji" font-size="16px" fill="#000000" text-anchor="middle" style="white-space: pre;" direction="ltr" dominant-baseline="text-before-edge">DOM</text></g><g stroke-linecap="round" transform="translate(10 65.5) rotate(0 61.5 17.5)"><path d="M8.75 0 M8.75 0 C52.71 1.15, 92.18 1.42, 114.25 0 M8.75 0 C46.51 0.98, 83.28 0.24, 114.25 0 M114.25 0 C122.02 0.97, 123.82 1.72, 123 8.75 M114.25 0 C119.02 -0.96, 122.33 1.84, 123 8.75 M123 8.75 C121.44 16.67, 122.58 23.16, 123 26.25 M123 8.75 C122.86 13.2, 123.51 16.69, 123 26.25 M123 26.25 C122.9 33.57, 118.9 34.49, 114.25 35 M123 26.25 C124.32 32.07, 120.69 36.98, 114.25 35 M114.25 35 C72.77 34.5, 35.27 34.99, 8.75 35 M114.25 35 C74.21 34.21, 34.83 34.39, 8.75 35 M8.75 35 C1.48 35, 0.14 31.24, 0 26.25 M8.75 35 C1.72 35.58, 1.72 32.82, 0 26.25 M0 26.25 C0 20.46, 0.36 18.93, 0 8.75 M0 26.25 C0.94 21.02, -0.02 16.28, 0 8.75 M0 8.75 C-0.09 4.74, 4.76 -0.82, 8.75 0 M0 8.75 C1.51 2.4, 2.31 1.75, 8.75 0" stroke="#000000" stroke-width="1" fill="none"></path></g><g transform="translate(42.16666603088379 73.80000000000001) rotate(0 29.33333396911621 9.200000000000003)"><text x="29.33333396911621" y="0" font-family="Helvetica, Segoe UI Emoji" font-size="16px" fill="#000000" text-anchor="middle" style="white-space: pre;" direction="ltr" dominant-baseline="text-before-edge">CSSOM</text></g><g stroke-linecap="round" transform="translate(10 125.5) rotate(0 61.5 15.5)"><path d="M7.75 0 M7.75 0 C33.45 -0.06, 55.97 -2.21, 115.25 0 M7.75 0 C28.61 1, 51.34 1.41, 115.25 0 M115.25 0 C119.75 -1.42, 124.85 3.54, 123 7.75 M115.25 0 C120.97 -0.23, 124 3.31, 123 7.75 M123 7.75 C121.58 12.89, 123.73 16.82, 123 23.25 M123 7.75 C122.59 12.16, 123.55 16.73, 123 23.25 M123 23.25 C123.8 28.92, 119.97 31.41, 115.25 31 M123 23.25 C120.82 27.93, 120.47 29.01, 115.25 31 M115.25 31 C78.74 30.77, 38.76 30.89, 7.75 31 M115.25 31 C80.06 31.05, 44.37 31.17, 7.75 31 M7.75 31 C3.83 31.67, 0.08 29.78, 0 23.25 M7.75 31 C3.95 29.68, 0.02 28.73, 0 23.25 M0 23.25 C-0.94 16.03, 0.84 10.95, 0 7.75 M0 23.25 C0.12 18.4, -0.17 14.43, 0 7.75 M0 7.75 C-0.94 1.07, 2.46 0.29, 7.75 0 M0 7.75 C1.07 3.22, 1.82 1.62, 7.75 0" stroke="#000000" stroke-width="1" fill="none"></path></g><g transform="translate(26.88333511352539 131.8) rotate(0 44.61666488647461 9.199999999999989)"><text x="44.61666488647461" y="0" font-family="Helvetica, Segoe UI Emoji" font-size="16px" fill="#000000" text-anchor="middle" style="white-space: pre;" direction="ltr" dominant-baseline="text-before-edge">Render Tree</text></g><g stroke-linecap="round" transform="translate(10 181.5) rotate(0 61.5 15.5)"><path d="M7.75 0 M7.75 0 C32.84 2.6, 62.61 2.65, 115.25 0 M7.75 0 C40.29 -0.1, 74.63 -0.37, 115.25 0 M115.25 0 C121.21 0.5, 122.56 3, 123 7.75 M115.25 0 C118.24 -0.48, 123.06 0.6, 123 7.75 M123 7.75 C123.76 12.44, 121.76 17.93, 123 23.25 M123 7.75 C122.95 13.07, 122.37 18.21, 123 23.25 M123 23.25 C124.25 29.09, 120.49 32.36, 115.25 31 M123 23.25 C124.37 27.09, 120.44 31.31, 115.25 31 M115.25 31 C73.38 30.02, 34.9 31.06, 7.75 31 M115.25 31 C83.9 30.41, 51.95 31.17, 7.75 31 M7.75 31 C1.64 29.49, -0.12 28.71, 0 23.25 M7.75 31 C3.65 31.64, -0.76 30.03, 0 23.25 M0 23.25 C-1.16 18.66, -0.1 14.95, 0 7.75 M0 23.25 C0.47 20.52, 0.6 17.57, 0 7.75 M0 7.75 C-1.89 3.48, 2.43 0.35, 7.75 0 M0 7.75 C-0.21 4.22, 1.1 1.56, 7.75 0" stroke="#000000" stroke-width="1" fill="none"></path></g><g transform="translate(47.483333587646484 187.8) rotate(0 24.016666412353516 9.199999999999989)"><text x="24.016666412353516" y="0" font-family="Helvetica, Segoe UI Emoji" font-size="16px" fill="#000000" text-anchor="middle" style="white-space: pre;" direction="ltr" dominant-baseline="text-before-edge">Layout</text></g><g stroke-linecap="round" transform="translate(10 237.5) rotate(0 61.5 15.5)"><path d="M7.75 0 M7.75 0 C48.25 -1.39, 89.17 1.08, 115.25 0 M7.75 0 C31.96 -0.06, 55.66 -0.48, 115.25 0 M115.25 0 C120.47 -1.73, 123.96 3.44, 123 7.75 M115.25 0 C121.87 1.03, 121.96 0.65, 123 7.75 M123 7.75 C122.58 11.4, 123.6 14.29, 123 23.25 M123 7.75 C123.13 13.69, 123.56 18.13, 123 23.25 M123 23.25 C123.02 28.69, 122 32.23, 115.25 31 M123 23.25 C124.6 27.16, 118.43 32.39, 115.25 31 M115.25 31 C86.34 31.8, 57.43 31.03, 7.75 31 M115.25 31 C78.95 30.33, 43.23 30.46, 7.75 31 M7.75 31 C1.92 32.41, -0.56 30.22, 0 23.25 M7.75 31 C4.53 29.48, -0.56 28.47, 0 23.25 M0 23.25 C-1 19.65, 1.11 15.15, 0 7.75 M0 23.25 C0.09 17.25, 0.07 11.52, 0 7.75 M0 7.75 C-1.29 3.94, 0.68 -1.39, 7.75 0 M0 7.75 C1.41 4.83, 4.86 -0.39, 7.75 0" stroke="#000000" stroke-width="1" fill="none"></path></g><g transform="translate(53.266666412353516 243.8) rotate(0 18.233333587646484 9.199999999999989)"><text x="18.233333587646484" y="0" font-family="Helvetica, Segoe UI Emoji" font-size="16px" fill="#000000" text-anchor="middle" style="white-space: pre;" direction="ltr" dominant-baseline="text-before-edge">Paint</text></g><g stroke-linecap="round" transform="translate(161 36.5) rotate(0 61.5 15.5)"><path d="M7.75 0 M7.75 0 C35.8 1.29, 61.81 1.2, 115.25 0 M7.75 0 C28.96 0.45, 52.32 0.6, 115.25 0 M115.25 0 C121.32 -0.9, 121.32 1.8, 123 7.75 M115.25 0 C120.99 2.1, 122.32 2, 123 7.75 M123 7.75 C123.81 13.48, 122.9 19.23, 123 23.25 M123 7.75 C123.02 13.94, 123.39 19.43, 123 23.25 M123 23.25 C121.9 26.69, 121.62 30.31, 115.25 31 M123 23.25 C122.86 29.17, 119.98 31.52, 115.25 31 M115.25 31 C86.16 29.89, 58.83 31.69, 7.75 31 M115.25 31 C78.7 30.36, 41.65 31.49, 7.75 31 M7.75 31 C1.27 30.52, 0.05 28.59, 0 23.25 M7.75 31 C0.45 32.89, -1.69 30.18, 0 23.25 M0 23.25 C-1.61 18.33, -0.26 12.29, 0 7.75 M0 23.25 C0.42 18.01, -0.65 14.71, 0 7.75 M0 7.75 C1.96 4.56, 2.24 1.69, 7.75 0 M0 7.75 C0.65 0.33, 1.7 2.26, 7.75 0" stroke="#000000" stroke-width="1" fill="none"></path></g><g transform="translate(185.1500015258789 42.80000000000001) rotate(0 37.349998474121094 9.200000000000003)"><text x="37.349998474121094" y="0" font-family="Helvetica, Segoe UI Emoji" font-size="16px" fill="#000000" text-anchor="middle" style="white-space: pre;" direction="ltr" dominant-baseline="text-before-edge">JavaScript</text></g><g stroke-linecap="round"><g transform="translate(71.84445234146438 42) rotate(0 -0.3444523414643754 11.716144010466536)"><path d="M0.03 -0.61 C0.25 3.2, 0.57 18.89, 0.72 23.02 M-1.41 1.68 C-1.24 5.6, -0.2 20.06, 0.15 24.04" stroke="#000000" stroke-width="1" fill="none"></path></g><g transform="translate(71.84445234146438 42) rotate(0 -0.3444523414643754 11.716144010466536)"><path d="M-5.44 13.84 C-4.54 16.83, -2.14 18.66, -0.5 24.05 M-5.3 12.62 C-4.34 15.43, -2.48 17.14, -0.27 24.49" stroke="#000000" stroke-width="1" fill="none"></path></g><g transform="translate(71.84445234146438 42) rotate(0 -0.3444523414643754 11.716144010466536)"><path d="M2.75 13.2 C1.58 16.35, 1.91 18.35, -0.5 24.05 M2.89 11.98 C2.2 14.91, 2.42 16.75, -0.27 24.49" stroke="#000000" stroke-width="1" fill="none"></path></g></g><mask></mask><g stroke-linecap="round"><g transform="translate(71.3169031833578 100.28385598953349) rotate(0 0.18309681664220534 12.25842349278274)"><path d="M0.13 0.6 C0.16 4.77, -0.64 20.8, -0.72 24.64 M-1.26 -0.13 C-0.76 3.72, 1.62 18.7, 1.62 22.86" stroke="#000000" stroke-width="1" fill="none"></path></g><g transform="translate(71.3169031833578 100.28385598953349) rotate(0 0.18309681664220534 12.25842349278274)"><path d="M-2.85 11.27 C-1.69 14.14, -1.49 17.56, 1.31 23.56 M-3.72 12.48 C-1.84 16.05, -0.55 19.14, 1.47 22.56" stroke="#000000" stroke-width="1" fill="none"></path></g><g transform="translate(71.3169031833578 100.28385598953349) rotate(0 0.18309681664220534 12.25842349278274)"><path d="M5.33 10.56 C4.64 13.59, 2.99 17.18, 1.31 23.56 M4.45 11.77 C3.69 15.53, 2.32 18.85, 1.47 22.56" stroke="#000000" stroke-width="1" fill="none"></path></g></g><mask></mask><g stroke-linecap="round"><g transform="translate(71.18858111325687 157.74157650721725) rotate(0 0.3114188867431267 11.976271196454775)"><path d="M0.9 -0.92 C0.77 3.23, -0.62 20.67, -0.84 24.88 M-0.09 1.2 C0.16 5.03, 1.65 19.72, 1.44 23.21" stroke="#000000" stroke-width="1" fill="none"></path></g><g transform="translate(71.18858111325687 157.74157650721725) rotate(0 0.3114188867431267 11.976271196454775)"><path d="M-3.97 11.25 C-0.84 14.97, -0.03 17.56, 0.27 23.73 M-2.54 12.2 C-1.98 15.3, -0.15 18.14, 1.29 23.76" stroke="#000000" stroke-width="1" fill="none"></path></g><g transform="translate(71.18858111325687 157.74157650721725) rotate(0 0.3114188867431267 11.976271196454775)"><path d="M4.23 10.97 C4.92 14.84, 3.29 17.51, 0.27 23.73 M5.66 11.92 C3.93 15.07, 3.46 17.99, 1.29 23.76" stroke="#000000" stroke-width="1" fill="none"></path></g></g><mask></mask><g stroke-linecap="round"><g transform="translate(71.31273011038536 213.02372880354528) rotate(0 0.18726988961458346 11.807102638953381)"><path d="M1.04 -0.03 C0.92 4.07, -0.85 20.51, -0.93 24.71 M0.12 -1.1 C0.39 2.65, 1.3 18.87, 1.3 22.96" stroke="#000000" stroke-width="1" fill="none"></path></g><g transform="translate(71.31273011038536 213.02372880354528) rotate(0 0.18726988961458346 11.807102638953381)"><path d="M-3.2 10.9 C-1.19 15.53, 0.52 18.01, 2.4 21.79 M-2.78 11.62 C-1.82 14.31, -1.36 16.98, 1.55 23.47" stroke="#000000" stroke-width="1" fill="none"></path></g><g transform="translate(71.31273011038536 213.02372880354528) rotate(0 0.18726988961458346 11.807102638953381)"><path d="M5 10.63 C4.7 15.41, 4.09 17.96, 2.4 21.79 M5.42 11.35 C4.33 14.07, 2.73 16.81, 1.55 23.47" stroke="#000000" stroke-width="1" fill="none"></path></g></g><mask></mask><g stroke-linecap="round"><g transform="translate(140 22.44586181640625) rotate(0 11.392899552732729 8.684365575485856)"><path d="M-0.48 0.96 C3.4 3.9, 19.43 14.36, 23.26 16.95 M1.48 0.42 C5.22 3.1, 19.11 13, 22.45 15.32" stroke="#000000" stroke-width="1" fill="none"></path></g><g transform="translate(140 22.44586181640625) rotate(0 11.392899552732729 8.684365575485856)"><path d="M10.06 11.96 C14.07 12.26, 17.55 13.07, 22.69 14.81 M8.29 11.87 C13.79 13.55, 19.36 14.3, 21.94 15.98" stroke="#000000" stroke-width="1" fill="none"></path></g><g transform="translate(140 22.44586181640625) rotate(0 11.392899552732729 8.684365575485856)"><path d="M15.58 4.12 C17.89 6.75, 19.71 9.91, 22.69 14.81 M13.81 4.04 C17.14 8.7, 20.58 12.46, 21.94 15.98" stroke="#000000" stroke-width="1" fill="none"></path></g></g><mask></mask><g stroke-linecap="round"><g transform="translate(158 64.44586181640625) rotate(0 -10.83221295442894 8.385038188779717)"><path d="M-0.54 0.72 C-4.28 3.31, -19.58 12.98, -23.04 15.46 M1.38 0.06 C-1.94 2.81, -17.03 13.93, -20.88 16.71" stroke="#000000" stroke-width="1" fill="none"></path></g><g transform="translate(158 64.44586181640625) rotate(0 -10.83221295442894 8.385038188779717)"><path d="M-12.49 4.23 C-15.81 8.96, -17.52 11.79, -21.49 17.65 M-13.43 5.54 C-15.72 8.68, -17.38 12.68, -20.53 16.32" stroke="#000000" stroke-width="1" fill="none"></path></g><g transform="translate(158 64.44586181640625) rotate(0 -10.83221295442894 8.385038188779717)"><path d="M-7 11.73 C-11.68 14.58, -14.75 15.54, -21.49 17.65 M-7.93 13.05 C-11.83 13.99, -15.12 15.76, -20.53 16.32" stroke="#000000" stroke-width="1" fill="none"></path></g></g><mask></mask></svg>