<?xml version="1.0" encoding="UTF-8" standalone="no"?><svg xmlns="http://www.w3.org/2000/svg" xmlns:xlink="http://www.w3.org/1999/xlink" contentStyleType="text/css" height="322px" preserveAspectRatio="none" style="width:362px;height:322px;background:#FFFFFF;" version="1.1" viewBox="0 0 362 322" width="362px" zoomAndPan="magnify"><defs/><g><!--MD5=[521817ab83e81da341a3f4b5e91bae41]
class Command--><g id="elem_Command"><rect codeLine="3" fill="#FFFFFF" height="44" id="Command" rx="2.5" ry="2.5" style="stroke:#000000;stroke-width:1.0;" width="103" x="114" y="12"/><ellipse cx="127" cy="26" fill="#FFFFFF" rx="9" ry="9" style="stroke:#000000;stroke-width:1.0;"/><path d="M122.9219,21.7656 L122.9219,19.6094 L130.3125,19.6094 L130.3125,21.7656 L127.8438,21.7656 L127.8438,29.8438 L130.3125,29.8438 L130.3125,32 L122.9219,32 L122.9219,29.8438 L125.3906,29.8438 L125.3906,21.7656 L122.9219,21.7656 Z " fill="#000000"/><text fill="#000000" font-family="Verdana" font-size="14" font-style="italic" lengthAdjust="spacing" textLength="75" x="139" y="31.5679">Command</text><line style="stroke:#000000;stroke-width:1.0;" x1="115" x2="216" y1="40" y2="40"/><line style="stroke:#000000;stroke-width:1.0;" x1="115" x2="216" y1="48" y2="48"/></g><!--MD5=[d01e39adb8cc3240d418de1aedb45e74]
class Invoker--><g id="elem_Invoker"><rect codeLine="4" fill="#FFFFFF" height="61.0146" id="Invoker" rx="2.5" ry="2.5" style="stroke:#000000;stroke-width:1.0;" width="117" x="12" y="124.5"/><ellipse cx="41.2" cy="138.5" fill="#FFFFFF" rx="9" ry="9" style="stroke:#000000;stroke-width:1.0;"/><path d="M44.1688,144.1406 Q43.5906,144.4375 42.95,144.5781 Q42.3094,144.7344 41.6063,144.7344 Q39.1063,144.7344 37.7781,143.0938 Q36.4656,141.4375 36.4656,138.3125 Q36.4656,135.1875 37.7781,133.5313 Q39.1063,131.875 41.6063,131.875 Q42.3094,131.875 42.95,132.0313 Q43.6063,132.1875 44.1688,132.4844 L44.1688,135.2031 Q43.5438,134.625 42.95,134.3594 Q42.3563,134.0781 41.7313,134.0781 Q40.3875,134.0781 39.7,135.1563 Q39.0125,136.2188 39.0125,138.3125 Q39.0125,140.4063 39.7,141.4844 Q40.3875,142.5469 41.7313,142.5469 Q42.3563,142.5469 42.95,142.2813 Q43.5438,142 44.1688,141.4219 L44.1688,144.1406 Z " fill="#000000"/><text fill="#000000" font-family="Verdana" font-size="14" lengthAdjust="spacing" textLength="53" x="56.8" y="144.0679">Invoker</text><line style="stroke:#000000;stroke-width:1.0;" x1="13" x2="128" y1="152.5" y2="152.5"/><line style="stroke:#000000;stroke-width:1.0;" x1="13" x2="128" y1="160.5" y2="160.5"/><text fill="#000000" font-family="Verdana" font-size="14" lengthAdjust="spacing" textLength="105" x="18" y="178.5752">setCommand()</text></g><!--MD5=[ed6624c6556d5e7b1bd23032162d20b7]
class Client--><g id="elem_Client"><rect codeLine="7" fill="#FFFFFF" height="44" id="Client" rx="2.5" ry="2.5" style="stroke:#000000;stroke-width:1.0;" width="67" x="279" y="12"/><ellipse cx="292" cy="26" fill="#FFFFFF" rx="9" ry="9" style="stroke:#000000;stroke-width:1.0;"/><path d="M294.9688,31.6406 Q294.3906,31.9375 293.75,32.0781 Q293.1094,32.2344 292.4063,32.2344 Q289.9063,32.2344 288.5781,30.5938 Q287.2656,28.9375 287.2656,25.8125 Q287.2656,22.6875 288.5781,21.0313 Q289.9063,19.375 292.4063,19.375 Q293.1094,19.375 293.75,19.5313 Q294.4063,19.6875 294.9688,19.9844 L294.9688,22.7031 Q294.3438,22.125 293.75,21.8594 Q293.1563,21.5781 292.5313,21.5781 Q291.1875,21.5781 290.5,22.6563 Q289.8125,23.7188 289.8125,25.8125 Q289.8125,27.9063 290.5,28.9844 Q291.1875,30.0469 292.5313,30.0469 Q293.1563,30.0469 293.75,29.7813 Q294.3438,29.5 294.9688,28.9219 L294.9688,31.6406 Z " fill="#000000"/><text fill="#000000" font-family="Verdana" font-size="14" lengthAdjust="spacing" textLength="39" x="304" y="31.5679">Client</text><line style="stroke:#000000;stroke-width:1.0;" x1="280" x2="345" y1="40" y2="40"/><line style="stroke:#000000;stroke-width:1.0;" x1="280" x2="345" y1="48" y2="48"/></g><!--MD5=[bcee973e2623bef0127252815a37a6e8]
class Receiver--><g id="elem_Receiver"><rect codeLine="8" fill="#FFFFFF" height="61.0146" id="Receiver" rx="2.5" ry="2.5" style="stroke:#000000;stroke-width:1.0;" width="86" x="269.5" y="254"/><ellipse cx="282.5" cy="268" fill="#FFFFFF" rx="9" ry="9" style="stroke:#000000;stroke-width:1.0;"/><path d="M285.4688,273.6406 Q284.8906,273.9375 284.25,274.0781 Q283.6094,274.2344 282.9063,274.2344 Q280.4063,274.2344 279.0781,272.5938 Q277.7656,270.9375 277.7656,267.8125 Q277.7656,264.6875 279.0781,263.0313 Q280.4063,261.375 282.9063,261.375 Q283.6094,261.375 284.25,261.5313 Q284.9063,261.6875 285.4688,261.9844 L285.4688,264.7031 Q284.8438,264.125 284.25,263.8594 Q283.6563,263.5781 283.0313,263.5781 Q281.6875,263.5781 281,264.6563 Q280.3125,265.7188 280.3125,267.8125 Q280.3125,269.9063 281,270.9844 Q281.6875,272.0469 283.0313,272.0469 Q283.6563,272.0469 284.25,271.7813 Q284.8438,271.5 285.4688,270.9219 L285.4688,273.6406 Z " fill="#000000"/><text fill="#000000" font-family="Verdana" font-size="14" lengthAdjust="spacing" textLength="58" x="294.5" y="273.5679">Receiver</text><line style="stroke:#000000;stroke-width:1.0;" x1="270.5" x2="354.5" y1="282" y2="282"/><line style="stroke:#000000;stroke-width:1.0;" x1="270.5" x2="354.5" y1="290" y2="290"/><text fill="#000000" font-family="Verdana" font-size="14" lengthAdjust="spacing" textLength="54" x="275.5" y="308.0752">action()</text></g><!--MD5=[6fb1311da0745c184c648aedb301439e]
class ConcreteCommand--><g id="elem_ConcreteCommand"><rect codeLine="11" fill="#FFFFFF" height="78.0293" id="ConcreteCommand" rx="2.5" ry="2.5" style="stroke:#000000;stroke-width:1.0;" width="162" x="164.5" y="116"/><ellipse cx="177.5" cy="130" fill="#FFFFFF" rx="9" ry="9" style="stroke:#000000;stroke-width:1.0;"/><path d="M180.4688,135.6406 Q179.8906,135.9375 179.25,136.0781 Q178.6094,136.2344 177.9063,136.2344 Q175.4063,136.2344 174.0781,134.5938 Q172.7656,132.9375 172.7656,129.8125 Q172.7656,126.6875 174.0781,125.0313 Q175.4063,123.375 177.9063,123.375 Q178.6094,123.375 179.25,123.5313 Q179.9063,123.6875 180.4688,123.9844 L180.4688,126.7031 Q179.8438,126.125 179.25,125.8594 Q178.6563,125.5781 178.0313,125.5781 Q176.6875,125.5781 176,126.6563 Q175.3125,127.7188 175.3125,129.8125 Q175.3125,131.9063 176,132.9844 Q176.6875,134.0469 178.0313,134.0469 Q178.6563,134.0469 179.25,133.7813 Q179.8438,133.5 180.4688,132.9219 L180.4688,135.6406 Z " fill="#000000"/><text fill="#000000" font-family="Verdana" font-size="14" lengthAdjust="spacing" textLength="134" x="189.5" y="135.5679">ConcreteCommand</text><line style="stroke:#000000;stroke-width:1.0;" x1="165.5" x2="325.5" y1="144" y2="144"/><line style="stroke:#000000;stroke-width:1.0;" x1="165.5" x2="325.5" y1="152" y2="152"/><text fill="#000000" font-family="Verdana" font-size="14" lengthAdjust="spacing" textLength="67" x="170.5" y="170.0752">execute()</text><text fill="#000000" font-family="Verdana" font-size="14" lengthAdjust="spacing" textLength="48" x="170.5" y="187.0898">undo()</text></g><!--MD5=[1fe732e57a9b15a8d9a868f3c0ff0f98]
reverse link Command to Invoker--><g id="link_Command_Invoker"><path codeLine="16" d="M145.44,60.13 C130.48,78.87 110,104.52 94.23,124.28 " fill="none" id="Command-backto-Invoker" style="stroke:#000000;stroke-width:1.0;"/><polygon fill="#000000" points="148.73,56,139.9883,60.5369,145.61,59.9071,146.2397,65.5288,148.73,56" style="stroke:#000000;stroke-width:1.0;"/></g><!--MD5=[71d76317347f4c6586f3f69fe5800413]
reverse link Command to ConcreteCommand--><g id="link_Command_ConcreteCommand"><path codeLine="17" d="M190.89,72.76 C200.14,86.53 210.61,102.1 219.89,115.9 " fill="none" id="Command-backto-ConcreteCommand" style="stroke:#000000;stroke-width:1.0;stroke-dasharray:7.0,7.0;"/><polygon fill="none" points="184.97,76.5,179.62,56,196.59,68.69,184.97,76.5" style="stroke:#000000;stroke-width:1.0;"/></g><!--MD5=[f6648c1eba52664df97c67a3949cfb3d]
link Client to Receiver--><g id="link_Client_Receiver"><path codeLine="18" d="M323.5,56.33 C331.08,72.29 340.48,94.91 344.5,116 C350.98,150.06 350.42,159.84 344.5,194 C341.26,212.71 334.46,232.69 327.96,249.01 " fill="none" id="Client-to-Receiver" style="stroke:#000000;stroke-width:1.0;"/><polygon fill="#000000" points="325.96,253.96,333.06,247.1344,327.8465,249.3295,325.6513,244.116,325.96,253.96" style="stroke:#000000;stroke-width:1.0;"/></g><!--MD5=[61226423da3d0f874329010916e4aeca]
link ConcreteCommand to Receiver--><g id="link_ConcreteCommand_Receiver"><path codeLine="19" d="M265.6,194.25 C274.76,211.69 285.52,232.16 294.43,249.1 " fill="none" id="ConcreteCommand-to-Receiver" style="stroke:#000000;stroke-width:1.0;"/><polygon fill="#000000" points="296.88,253.78,296.2319,243.9525,294.553,249.3545,289.151,247.6756,296.88,253.78" style="stroke:#000000;stroke-width:1.0;"/></g><!--MD5=[e02f0c38d8c32dd9900da956a7b9472a]
link Client to ConcreteCommand--><g id="link_Client_ConcreteCommand"><path codeLine="20" d="M300.68,56 C292.09,71.26 280.17,92.43 269.6,111.19 " fill="none" id="Client-to-ConcreteCommand" style="stroke:#000000;stroke-width:1.0;"/><polygon fill="#000000" points="266.95,115.9,274.8404,110.0058,269.3952,111.5387,267.8623,106.0935,266.95,115.9" style="stroke:#000000;stroke-width:1.0;"/></g><!--MD5=[3597bf2ea2b1ed8d19aa529414a0c98d]
@startuml
!theme plain

interface Command
class Invoker {
  setCommand()
}
class Client
class Receiver {
  action()
}
class ConcreteCommand {
  execute()
  undo()
}

Command <- - Invoker
Command <|.. ConcreteCommand
Client - -> Receiver
ConcreteCommand - -> Receiver
Client - -> ConcreteCommand

@enduml

@startuml







<style>
  root {
    BackgroundColor white
    FontColor black
    FontName Verdana
    HyperLinkColor blue
    LineColor black
    LineThickness 1
    Margin 5
  }
  caption {
    LineThickness 0
  }
  footer {
    LineThickness 0
  }
  header {
    LineThickness 0
  }
  node {
    MaximumWidth 300
  }
  title {
    FontSize 22
    LineThickness 0
  }
</style>

skinparam ArrowLollipopColor black
skinparam BackgroundColor white
skinparam DefaultFontName Verdana
skinparam DefaultMonospacedFontName Courier
skinparam LifelineStrategy nosolid
skinparam ParticipantPadding 10
skinparam SequenceLifeLineBorderColor black
skinparam Shadowing false
skinparam UseBetaStyle true

skinparam Activity {
  BackgroundColor white
  BarColor black
  BorderColor black
  FontColor black
  FontName Verdana
}
skinparam Boundary {
  FontColor black
}
skinparam Box {
  Padding 5
}
skinparam CircledCharacter {
  FontColor black
  FontName Courier
  Radius 9
}
skinparam Class {
  BackgroundColor white
  BorderColor black
  FontColor black
  FontName Verdana
}
skinparam ClassAttribute {
  FontColor black
  FontName Verdana
}
skinparam ClassStereotype {
  FontColor black
  FontName Verdana
}
skinparam Footer {
  FontColor black
  FontName Verdana
}
skinparam Header {
  FontColor black
  FontName Verdana
}
skinparam Hyperlink {
  Color blue
}
skinparam IconPackage {
  Color black
  BackgroundColor white
}
skinparam IconPrivate {
  Color black
  BackgroundColor white
}
skinparam IconProtected {
  Color black
  BackgroundColor white
}
skinparam IconPublic {
  Color black
  BackgroundColor white
}
skinparam Note {
  FontColor black
  FontName Verdana
}
skinparam Object {
  BorderColor black
}
skinparam Package {
  BorderColor black
  FontColor black
  FontName Verdana
}
skinparam State {
  BackgroundColor white
  BorderColor black
}
skinparam StereotypeA {
  BackgroundColor white
  BorderColor black
}
skinparam StereotypeC {
  BackgroundColor white
  BorderColor black
}
skinparam StereotypeE {
  BackgroundColor white
  BorderColor black
}
skinparam StereotypeI {
  BackgroundColor white
  BorderColor black
}
skinparam StereotypeN {
  BackgroundColor white
  BorderColor black
}
skinparam UseCaseStereoType {
  FontColor black
  FontName Verdana
}

interface Command
class Invoker {
  setCommand()
}
class Client
class Receiver {
  action()
}
class ConcreteCommand {
  execute()
  undo()
}

Command <- - Invoker
Command <|.. ConcreteCommand
Client - -> Receiver
ConcreteCommand - -> Receiver
Client - -> ConcreteCommand

@enduml

PlantUML version 1.2022.7(Tue Aug 23 01:01:30 CST 2022)
(GPL source distribution)
Java Runtime: OpenJDK Runtime Environment
JVM: OpenJDK 64-Bit Server VM
Default Encoding: UTF-8
Language: en
Country: US
--></g></svg>