<?xml version="1.0" encoding="UTF-8" standalone="no"?><svg xmlns="http://www.w3.org/2000/svg" xmlns:xlink="http://www.w3.org/1999/xlink" contentStyleType="text/css" height="322px" preserveAspectRatio="none" style="width:465px;height:322px;background:#FFFFFF;" version="1.1" viewBox="0 0 465 322" width="465px" zoomAndPan="magnify"><defs/><g><!--MD5=[4e13963c9dc916a21a8436ef39422b32]
class Component--><g id="elem_Component"><rect codeLine="4" fill="#FFFFFF" height="61.0146" id="Component" rx="2.5" ry="2.5" style="stroke:#000000;stroke-width:1.0;" width="112" x="213.5" y="12"/><ellipse cx="226.5" cy="26" fill="#FFFFFF" rx="9" ry="9" style="stroke:#000000;stroke-width:1.0;"/><path d="M226.6094,21.3438 L225.4531,26.4219 L227.7813,26.4219 L226.6094,21.3438 Z M225.125,19.1094 L228.1094,19.1094 L231.4688,31.5 L229.0156,31.5 L228.25,28.4375 L224.9688,28.4375 L224.2188,31.5 L221.7813,31.5 L225.125,19.1094 Z " fill="#000000"/><text fill="#000000" font-family="Verdana" font-size="14" font-style="italic" lengthAdjust="spacing" textLength="84" x="238.5" y="31.5679">Component</text><line style="stroke:#000000;stroke-width:1.0;" x1="214.5" x2="324.5" y1="40" y2="40"/><line style="stroke:#000000;stroke-width:1.0;" x1="214.5" x2="324.5" y1="48" y2="48"/><text fill="#000000" font-family="Verdana" font-size="14" font-style="italic" lengthAdjust="spacing" textLength="78" x="219.5" y="66.0752">methodA()</text></g><!--MD5=[b5bc18f2ff550a3ef28474c0b2646ebb]
class ConcreteComponent--><g id="elem_ConcreteComponent"><rect codeLine="8" fill="#FFFFFF" height="61.0146" id="ConcreteComponent" rx="2.5" ry="2.5" style="stroke:#000000;stroke-width:1.0;" width="173" x="12" y="133"/><ellipse cx="25" cy="147" fill="#FFFFFF" rx="9" ry="9" style="stroke:#000000;stroke-width:1.0;"/><path d="M27.9688,152.6406 Q27.3906,152.9375 26.75,153.0781 Q26.1094,153.2344 25.4063,153.2344 Q22.9063,153.2344 21.5781,151.5938 Q20.2656,149.9375 20.2656,146.8125 Q20.2656,143.6875 21.5781,142.0313 Q22.9063,140.375 25.4063,140.375 Q26.1094,140.375 26.75,140.5313 Q27.4063,140.6875 27.9688,140.9844 L27.9688,143.7031 Q27.3438,143.125 26.75,142.8594 Q26.1563,142.5781 25.5313,142.5781 Q24.1875,142.5781 23.5,143.6563 Q22.8125,144.7188 22.8125,146.8125 Q22.8125,148.9063 23.5,149.9844 Q24.1875,151.0469 25.5313,151.0469 Q26.1563,151.0469 26.75,150.7813 Q27.3438,150.5 27.9688,149.9219 L27.9688,152.6406 Z " fill="#000000"/><text fill="#000000" font-family="Verdana" font-size="14" lengthAdjust="spacing" textLength="145" x="37" y="152.5679">ConcreteComponent</text><line style="stroke:#000000;stroke-width:1.0;" x1="13" x2="184" y1="161" y2="161"/><line style="stroke:#000000;stroke-width:1.0;" x1="13" x2="184" y1="169" y2="169"/><text fill="#000000" font-family="Verdana" font-size="14" lengthAdjust="spacing" textLength="76" x="18" y="187.0752">methodA()</text></g><!--MD5=[321dae1e4c20a532a67879525d68ecc8]
class Decorator--><g id="elem_Decorator"><rect codeLine="12" fill="#FFFFFF" height="61.0146" id="Decorator" rx="2.5" ry="2.5" style="stroke:#000000;stroke-width:1.0;" width="99" x="220" y="133"/><ellipse cx="233" cy="147" fill="#FFFFFF" rx="9" ry="9" style="stroke:#000000;stroke-width:1.0;"/><path d="M233.1094,142.3438 L231.9531,147.4219 L234.2813,147.4219 L233.1094,142.3438 Z M231.625,140.1094 L234.6094,140.1094 L237.9688,152.5 L235.5156,152.5 L234.75,149.4375 L231.4688,149.4375 L230.7188,152.5 L228.2813,152.5 L231.625,140.1094 Z " fill="#000000"/><text fill="#000000" font-family="Verdana" font-size="14" font-style="italic" lengthAdjust="spacing" textLength="71" x="245" y="152.5679">Decorator</text><line style="stroke:#000000;stroke-width:1.0;" x1="221" x2="318" y1="161" y2="161"/><text fill="#000000" font-family="Verdana" font-size="14" lengthAdjust="spacing" textLength="86" x="226" y="179.0752">-component</text><line style="stroke:#000000;stroke-width:1.0;" x1="221" x2="318" y1="186.0146" y2="186.0146"/></g><!--MD5=[3d4911f658bf28a18bbdda28e39593ef]
class ConcreteDecoratorA--><g id="elem_ConcreteDecoratorA"><rect codeLine="16" fill="#FFFFFF" height="61.0146" id="ConcreteDecoratorA" rx="2.5" ry="2.5" style="stroke:#000000;stroke-width:1.0;" width="171" x="81" y="254"/><ellipse cx="94" cy="268" fill="#FFFFFF" rx="9" ry="9" style="stroke:#000000;stroke-width:1.0;"/><path d="M96.9688,273.6406 Q96.3906,273.9375 95.75,274.0781 Q95.1094,274.2344 94.4063,274.2344 Q91.9063,274.2344 90.5781,272.5938 Q89.2656,270.9375 89.2656,267.8125 Q89.2656,264.6875 90.5781,263.0313 Q91.9063,261.375 94.4063,261.375 Q95.1094,261.375 95.75,261.5313 Q96.4063,261.6875 96.9688,261.9844 L96.9688,264.7031 Q96.3438,264.125 95.75,263.8594 Q95.1563,263.5781 94.5313,263.5781 Q93.1875,263.5781 92.5,264.6563 Q91.8125,265.7188 91.8125,267.8125 Q91.8125,269.9063 92.5,270.9844 Q93.1875,272.0469 94.5313,272.0469 Q95.1563,272.0469 95.75,271.7813 Q96.3438,271.5 96.9688,270.9219 L96.9688,273.6406 Z " fill="#000000"/><text fill="#000000" font-family="Verdana" font-size="14" lengthAdjust="spacing" textLength="143" x="106" y="273.5679">ConcreteDecoratorA</text><line style="stroke:#000000;stroke-width:1.0;" x1="82" x2="251" y1="282" y2="282"/><line style="stroke:#000000;stroke-width:1.0;" x1="82" x2="251" y1="290" y2="290"/><text fill="#000000" font-family="Verdana" font-size="14" lengthAdjust="spacing" textLength="76" x="87" y="308.0752">methodA()</text></g><!--MD5=[215fe3d16f92b5b74e11efe33e544b1e]
class ConcreteDecoratorB--><g id="elem_ConcreteDecoratorB"><rect codeLine="20" fill="#FFFFFF" height="61.0146" id="ConcreteDecoratorB" rx="2.5" ry="2.5" style="stroke:#000000;stroke-width:1.0;" width="171" x="287" y="254"/><ellipse cx="300" cy="268" fill="#FFFFFF" rx="9" ry="9" style="stroke:#000000;stroke-width:1.0;"/><path d="M302.9688,273.6406 Q302.3906,273.9375 301.75,274.0781 Q301.1094,274.2344 300.4063,274.2344 Q297.9063,274.2344 296.5781,272.5938 Q295.2656,270.9375 295.2656,267.8125 Q295.2656,264.6875 296.5781,263.0313 Q297.9063,261.375 300.4063,261.375 Q301.1094,261.375 301.75,261.5313 Q302.4063,261.6875 302.9688,261.9844 L302.9688,264.7031 Q302.3438,264.125 301.75,263.8594 Q301.1563,263.5781 300.5313,263.5781 Q299.1875,263.5781 298.5,264.6563 Q297.8125,265.7188 297.8125,267.8125 Q297.8125,269.9063 298.5,270.9844 Q299.1875,272.0469 300.5313,272.0469 Q301.1563,272.0469 301.75,271.7813 Q302.3438,271.5 302.9688,270.9219 L302.9688,273.6406 Z " fill="#000000"/><text fill="#000000" font-family="Verdana" font-size="14" lengthAdjust="spacing" textLength="143" x="312" y="273.5679">ConcreteDecoratorB</text><line style="stroke:#000000;stroke-width:1.0;" x1="288" x2="457" y1="282" y2="282"/><line style="stroke:#000000;stroke-width:1.0;" x1="288" x2="457" y1="290" y2="290"/><text fill="#000000" font-family="Verdana" font-size="14" lengthAdjust="spacing" textLength="76" x="293" y="308.0752">methodA()</text></g><!--MD5=[4758994e2c5b8c480b5268b073beb8b0]
reverse link Component to ConcreteComponent--><g id="link_Component_ConcreteComponent"><path codeLine="24" d="M210.04,84.88 C187.29,100.71 161.81,118.44 140.96,132.95 " fill="none" id="Component-backto-ConcreteComponent" style="stroke:#000000;stroke-width:1.0;"/><polygon fill="none" points="206.38,78.9,226.79,73.22,214.37,90.39,206.38,78.9" style="stroke:#000000;stroke-width:1.0;"/></g><!--MD5=[c50e16e7686754e8210f5940617c961a]
reverse link Component to Decorator--><g id="link_Component_Decorator"><path codeLine="25" d="M256.9,93.33 C256.48,106.73 256.94,120.81 258.29,132.74 " fill="none" id="Component-backto-Decorator" style="stroke:#000000;stroke-width:1.0;"/><polygon fill="none" points="249.93,92.69,258.29,73.22,263.89,93.66,249.93,92.69" style="stroke:#000000;stroke-width:1.0;"/></g><!--MD5=[c47b27c8bab0747c66501be7d041664a]
reverse link Decorator to Component--><g id="link_Decorator_Component"><path codeLine="26" d="M282.51,119.74 C283.43,104.32 283.05,87.28 281.37,73.22 " fill="none" id="Decorator-backto-Component" style="stroke:#000000;stroke-width:1.0;"/><polygon fill="none" points="281.37,132.74,285.8761,127.1101,282.4124,120.7854,277.9063,126.4152,281.37,132.74" style="stroke:#000000;stroke-width:1.0;"/></g><!--MD5=[f907037d0dffa64436d163361a5736dc]
reverse link Decorator to ConcreteDecoratorA--><g id="link_Decorator_ConcreteDecoratorA"><path codeLine="27" d="M230.49,209.57 C217.7,224.35 203.81,240.39 192.25,253.74 " fill="none" id="Decorator-backto-ConcreteDecoratorA" style="stroke:#000000;stroke-width:1.0;"/><polygon fill="none" points="225.39,204.76,243.77,194.22,235.98,213.93,225.39,204.76" style="stroke:#000000;stroke-width:1.0;"/></g><!--MD5=[672ea5d325655b2d6541b2de402bde5b]
reverse link Decorator to ConcreteDecoratorB--><g id="link_Decorator_ConcreteDecoratorB"><path codeLine="28" d="M308.51,209.57 C321.3,224.35 335.19,240.39 346.75,253.74 " fill="none" id="Decorator-backto-ConcreteDecoratorB" style="stroke:#000000;stroke-width:1.0;"/><polygon fill="none" points="303.02,213.93,295.23,194.22,313.61,204.76,303.02,213.93" style="stroke:#000000;stroke-width:1.0;"/></g><!--MD5=[0fc3493cc6a3cc22de65e2f9f91c4f8a]
@startuml
!theme plain
skinparam classAttributeIconSize 0

abstract class Component {
  {abstract} methodA()
}

class ConcreteComponent {
  methodA()
}

abstract class Decorator {
  -component
}

class ConcreteDecoratorA {
  methodA()
}

class ConcreteDecoratorB {
  methodA()
}

Component <|- - ConcreteComponent
Component <|- - Decorator
Decorator o- - Component
Decorator <|- - ConcreteDecoratorA
Decorator <|- - ConcreteDecoratorB

@end uml

@startuml







<style>
  root {
    BackgroundColor white
    FontColor black
    FontName Verdana
    HyperLinkColor blue
    LineColor black
    LineThickness 1
    Margin 5
  }
  caption {
    LineThickness 0
  }
  footer {
    LineThickness 0
  }
  header {
    LineThickness 0
  }
  node {
    MaximumWidth 300
  }
  title {
    FontSize 22
    LineThickness 0
  }
</style>

skinparam ArrowLollipopColor black
skinparam BackgroundColor white
skinparam DefaultFontName Verdana
skinparam DefaultMonospacedFontName Courier
skinparam LifelineStrategy nosolid
skinparam ParticipantPadding 10
skinparam SequenceLifeLineBorderColor black
skinparam Shadowing false
skinparam UseBetaStyle true

skinparam Activity {
  BackgroundColor white
  BarColor black
  BorderColor black
  FontColor black
  FontName Verdana
}
skinparam Boundary {
  FontColor black
}
skinparam Box {
  Padding 5
}
skinparam CircledCharacter {
  FontColor black
  FontName Courier
  Radius 9
}
skinparam Class {
  BackgroundColor white
  BorderColor black
  FontColor black
  FontName Verdana
}
skinparam ClassAttribute {
  FontColor black
  FontName Verdana
}
skinparam ClassStereotype {
  FontColor black
  FontName Verdana
}
skinparam Footer {
  FontColor black
  FontName Verdana
}
skinparam Header {
  FontColor black
  FontName Verdana
}
skinparam Hyperlink {
  Color blue
}
skinparam IconPackage {
  Color black
  BackgroundColor white
}
skinparam IconPrivate {
  Color black
  BackgroundColor white
}
skinparam IconProtected {
  Color black
  BackgroundColor white
}
skinparam IconPublic {
  Color black
  BackgroundColor white
}
skinparam Note {
  FontColor black
  FontName Verdana
}
skinparam Object {
  BorderColor black
}
skinparam Package {
  BorderColor black
  FontColor black
  FontName Verdana
}
skinparam State {
  BackgroundColor white
  BorderColor black
}
skinparam StereotypeA {
  BackgroundColor white
  BorderColor black
}
skinparam StereotypeC {
  BackgroundColor white
  BorderColor black
}
skinparam StereotypeE {
  BackgroundColor white
  BorderColor black
}
skinparam StereotypeI {
  BackgroundColor white
  BorderColor black
}
skinparam StereotypeN {
  BackgroundColor white
  BorderColor black
}
skinparam UseCaseStereoType {
  FontColor black
  FontName Verdana
}
skinparam classAttributeIconSize 0

abstract class Component {
  {abstract} methodA()
}

class ConcreteComponent {
  methodA()
}

abstract class Decorator {
  -component
}

class ConcreteDecoratorA {
  methodA()
}

class ConcreteDecoratorB {
  methodA()
}

Component <|- - ConcreteComponent
Component <|- - Decorator
Decorator o- - Component
Decorator <|- - ConcreteDecoratorA
Decorator <|- - ConcreteDecoratorB

@end uml

PlantUML version 1.2022.7(Tue Aug 23 01:01:30 CST 2022)
(GPL source distribution)
Java Runtime: OpenJDK Runtime Environment
JVM: OpenJDK 64-Bit Server VM
Default Encoding: UTF-8
Language: en
Country: US
--></g></svg>