<?xml version="1.0" encoding="UTF-8" standalone="no"?><svg xmlns="http://www.w3.org/2000/svg" xmlns:xlink="http://www.w3.org/1999/xlink" contentStyleType="text/css" height="201px" preserveAspectRatio="none" style="width:343px;height:201px;background:#FFFFFF;" version="1.1" viewBox="0 0 343 201" width="343px" zoomAndPan="magnify"><defs/><g><!--MD5=[2c589014e840926a718801db2289e0a7]
class Creator--><g id="elem_Creator"><rect codeLine="3" fill="#FFFFFF" height="78.0293" id="Creator" rx="2.5" ry="2.5" style="stroke:#000000;stroke-width:1.0;" width="136" x="196.5" y="12"/><ellipse cx="234.25" cy="26" fill="#FFFFFF" rx="9" ry="9" style="stroke:#000000;stroke-width:1.0;"/><path d="M234.3594,21.3438 L233.2031,26.4219 L235.5313,26.4219 L234.3594,21.3438 Z M232.875,19.1094 L235.8594,19.1094 L239.2188,31.5 L236.7656,31.5 L236,28.4375 L232.7188,28.4375 L231.9688,31.5 L229.5313,31.5 L232.875,19.1094 Z " fill="#000000"/><text fill="#000000" font-family="Verdana" font-size="14" font-style="italic" lengthAdjust="spacing" textLength="53" x="251.75" y="31.5679">Creator</text><line style="stroke:#000000;stroke-width:1.0;" x1="197.5" x2="331.5" y1="40" y2="40"/><line style="stroke:#000000;stroke-width:1.0;" x1="197.5" x2="331.5" y1="48" y2="48"/><text fill="#000000" font-family="Verdana" font-size="14" lengthAdjust="spacing" textLength="124" x="202.5" y="66.0752">abstract factory()</text><text fill="#000000" font-family="Verdana" font-size="14" lengthAdjust="spacing" textLength="98" x="202.5" y="83.0898">anOperation()</text></g><!--MD5=[72136138052d025cffdce3c22fbd185f]
class Product--><g id="elem_Product"><rect codeLine="8" fill="#FFFFFF" height="44" id="Product" rx="2.5" ry="2.5" style="stroke:#000000;stroke-width:1.0;" width="83" x="43" y="29"/><ellipse cx="56" cy="43" fill="#FFFFFF" rx="9" ry="9" style="stroke:#000000;stroke-width:1.0;"/><path d="M56.1094,38.3438 L54.9531,43.4219 L57.2813,43.4219 L56.1094,38.3438 Z M54.625,36.1094 L57.6094,36.1094 L60.9688,48.5 L58.5156,48.5 L57.75,45.4375 L54.4688,45.4375 L53.7188,48.5 L51.2813,48.5 L54.625,36.1094 Z " fill="#000000"/><text fill="#000000" font-family="Verdana" font-size="14" font-style="italic" lengthAdjust="spacing" textLength="55" x="68" y="48.5679">Product</text><line style="stroke:#000000;stroke-width:1.0;" x1="44" x2="125" y1="57" y2="57"/><line style="stroke:#000000;stroke-width:1.0;" x1="44" x2="125" y1="65" y2="65"/></g><!--MD5=[990132e04f994323e3060f5453bb4352]
class ConcreteProduct--><g id="elem_ConcreteProduct"><rect codeLine="10" fill="#FFFFFF" height="44" id="ConcreteProduct" rx="2.5" ry="2.5" style="stroke:#000000;stroke-width:1.0;" width="145" x="12" y="150"/><ellipse cx="25" cy="164" fill="#FFFFFF" rx="9" ry="9" style="stroke:#000000;stroke-width:1.0;"/><path d="M27.9688,169.6406 Q27.3906,169.9375 26.75,170.0781 Q26.1094,170.2344 25.4063,170.2344 Q22.9063,170.2344 21.5781,168.5938 Q20.2656,166.9375 20.2656,163.8125 Q20.2656,160.6875 21.5781,159.0313 Q22.9063,157.375 25.4063,157.375 Q26.1094,157.375 26.75,157.5313 Q27.4063,157.6875 27.9688,157.9844 L27.9688,160.7031 Q27.3438,160.125 26.75,159.8594 Q26.1563,159.5781 25.5313,159.5781 Q24.1875,159.5781 23.5,160.6563 Q22.8125,161.7188 22.8125,163.8125 Q22.8125,165.9063 23.5,166.9844 Q24.1875,168.0469 25.5313,168.0469 Q26.1563,168.0469 26.75,167.7813 Q27.3438,167.5 27.9688,166.9219 L27.9688,169.6406 Z " fill="#000000"/><text fill="#000000" font-family="Verdana" font-size="14" lengthAdjust="spacing" textLength="117" x="37" y="169.5679">ConcreteProduct</text><line style="stroke:#000000;stroke-width:1.0;" x1="13" x2="156" y1="178" y2="178"/><line style="stroke:#000000;stroke-width:1.0;" x1="13" x2="156" y1="186" y2="186"/></g><!--MD5=[9fa9675923b2c821721124a66decc968]
class ConcreteCreator--><g id="elem_ConcreteCreator"><rect codeLine="12" fill="#FFFFFF" height="44" id="ConcreteCreator" rx="2.5" ry="2.5" style="stroke:#000000;stroke-width:1.0;" width="144" x="192.5" y="150"/><ellipse cx="205.5" cy="164" fill="#FFFFFF" rx="9" ry="9" style="stroke:#000000;stroke-width:1.0;"/><path d="M208.4688,169.6406 Q207.8906,169.9375 207.25,170.0781 Q206.6094,170.2344 205.9063,170.2344 Q203.4063,170.2344 202.0781,168.5938 Q200.7656,166.9375 200.7656,163.8125 Q200.7656,160.6875 202.0781,159.0313 Q203.4063,157.375 205.9063,157.375 Q206.6094,157.375 207.25,157.5313 Q207.9063,157.6875 208.4688,157.9844 L208.4688,160.7031 Q207.8438,160.125 207.25,159.8594 Q206.6563,159.5781 206.0313,159.5781 Q204.6875,159.5781 204,160.6563 Q203.3125,161.7188 203.3125,163.8125 Q203.3125,165.9063 204,166.9844 Q204.6875,168.0469 206.0313,168.0469 Q206.6563,168.0469 207.25,167.7813 Q207.8438,167.5 208.4688,166.9219 L208.4688,169.6406 Z " fill="#000000"/><text fill="#000000" font-family="Verdana" font-size="14" lengthAdjust="spacing" textLength="116" x="217.5" y="169.5679">ConcreteCreator</text><line style="stroke:#000000;stroke-width:1.0;" x1="193.5" x2="335.5" y1="178" y2="178"/><line style="stroke:#000000;stroke-width:1.0;" x1="193.5" x2="335.5" y1="186" y2="186"/></g><!--MD5=[03f389ab946010d19db5823a3056b88d]
reverse link Product to ConcreteProduct--><g id="link_Product_ConcreteProduct"><path codeLine="14" d="M84.5,93.22 C84.5,112.29 84.5,134.14 84.5,149.81 " fill="none" id="Product-backto-ConcreteProduct" style="stroke:#000000;stroke-width:1.0;"/><polygon fill="none" points="77.5,93,84.5,73,91.5,93,77.5,93" style="stroke:#000000;stroke-width:1.0;"/></g><!--MD5=[ef1bc5798733e6fc5a6eca0cf841bcae]
reverse link Creator to ConcreteCreator--><g id="link_Creator_ConcreteCreator"><path codeLine="15" d="M264.5,110.49 C264.5,124.55 264.5,138.69 264.5,149.76 " fill="none" id="Creator-backto-ConcreteCreator" style="stroke:#000000;stroke-width:1.0;"/><polygon fill="none" points="257.5,110.31,264.5,90.31,271.5,110.31,257.5,110.31" style="stroke:#000000;stroke-width:1.0;"/></g><!--MD5=[a725d70ebb0444d9edb449c8e9408be0]
reverse link ConcreteProduct to ConcreteCreator--><g id="link_ConcreteProduct_ConcreteCreator"><path codeLine="16" d="M162.5,172 C172.48,172 182.47,172 192.46,172 " fill="none" id="ConcreteProduct-backto-ConcreteCreator" style="stroke:#000000;stroke-width:1.0;"/><polygon fill="#000000" points="157.27,172,166.27,176,162.27,172,166.27,168,157.27,172" style="stroke:#000000;stroke-width:1.0;"/></g><!--MD5=[110665894e240b3f6a8b60ea65fb47e0]
@startuml
!theme plain

abstract class Creator {
  abstract factory()
  anOperation()
}

abstract class Product {}

class ConcreteProduct {}

class ConcreteCreator {}

Product <|- - ConcreteProduct
Creator <|- - ConcreteCreator
ConcreteProduct <- -r- ConcreteCreator

@enduml

@startuml







<style>
  root {
    BackgroundColor white
    FontColor black
    FontName Verdana
    HyperLinkColor blue
    LineColor black
    LineThickness 1
    Margin 5
  }
  caption {
    LineThickness 0
  }
  footer {
    LineThickness 0
  }
  header {
    LineThickness 0
  }
  node {
    MaximumWidth 300
  }
  title {
    FontSize 22
    LineThickness 0
  }
</style>

skinparam ArrowLollipopColor black
skinparam BackgroundColor white
skinparam DefaultFontName Verdana
skinparam DefaultMonospacedFontName Courier
skinparam LifelineStrategy nosolid
skinparam ParticipantPadding 10
skinparam SequenceLifeLineBorderColor black
skinparam Shadowing false
skinparam UseBetaStyle true

skinparam Activity {
  BackgroundColor white
  BarColor black
  BorderColor black
  FontColor black
  FontName Verdana
}
skinparam Boundary {
  FontColor black
}
skinparam Box {
  Padding 5
}
skinparam CircledCharacter {
  FontColor black
  FontName Courier
  Radius 9
}
skinparam Class {
  BackgroundColor white
  BorderColor black
  FontColor black
  FontName Verdana
}
skinparam ClassAttribute {
  FontColor black
  FontName Verdana
}
skinparam ClassStereotype {
  FontColor black
  FontName Verdana
}
skinparam Footer {
  FontColor black
  FontName Verdana
}
skinparam Header {
  FontColor black
  FontName Verdana
}
skinparam Hyperlink {
  Color blue
}
skinparam IconPackage {
  Color black
  BackgroundColor white
}
skinparam IconPrivate {
  Color black
  BackgroundColor white
}
skinparam IconProtected {
  Color black
  BackgroundColor white
}
skinparam IconPublic {
  Color black
  BackgroundColor white
}
skinparam Note {
  FontColor black
  FontName Verdana
}
skinparam Object {
  BorderColor black
}
skinparam Package {
  BorderColor black
  FontColor black
  FontName Verdana
}
skinparam State {
  BackgroundColor white
  BorderColor black
}
skinparam StereotypeA {
  BackgroundColor white
  BorderColor black
}
skinparam StereotypeC {
  BackgroundColor white
  BorderColor black
}
skinparam StereotypeE {
  BackgroundColor white
  BorderColor black
}
skinparam StereotypeI {
  BackgroundColor white
  BorderColor black
}
skinparam StereotypeN {
  BackgroundColor white
  BorderColor black
}
skinparam UseCaseStereoType {
  FontColor black
  FontName Verdana
}

abstract class Creator {
  abstract factory()
  anOperation()
}

abstract class Product {}

class ConcreteProduct {}

class ConcreteCreator {}

Product <|- - ConcreteProduct
Creator <|- - ConcreteCreator
ConcreteProduct <- -r- ConcreteCreator

@enduml

PlantUML version 1.2022.7(Tue Aug 23 01:01:30 CST 2022)
(GPL source distribution)
Java Runtime: OpenJDK Runtime Environment
JVM: OpenJDK 64-Bit Server VM
Default Encoding: UTF-8
Language: en
Country: US
--></g></svg>