<svg version="1.1" xmlns="http://www.w3.org/2000/svg" viewBox="0 0 640 199.6632537841797" width="640" height="199.6632537841797">
  <!-- svg-source:excalidraw -->
  
  <defs>
    <style class="style-fonts">
      @font-face {
        font-family: "Virgil";
        src: url("https://excalidraw.com/Virgil.woff2");
      }
      @font-face {
        font-family: "Cascadia";
        src: url("https://excalidraw.com/Cascadia.woff2");
      }
    </style>
  </defs>
  <g stroke-linecap="round" transform="translate(10 19.5) rotate(0 62 23.5)"><path d="M11.75 0 M11.75 0 C46.25 -0.72, 83.46 2.52, 112.25 0 M11.75 0 C44.38 0.47, 78.52 1.26, 112.25 0 M112.25 0 C119.33 1.83, 125.22 4.83, 124 11.75 M112.25 0 C121.96 -0.5, 124.12 5.32, 124 11.75 M124 11.75 C122.37 18.73, 122.32 20.63, 124 35.25 M124 11.75 C124.27 18.4, 124.68 24.26, 124 35.25 M124 35.25 C125.24 42.11, 121.96 45.87, 112.25 47 M124 35.25 C123.44 43.89, 122.23 45.29, 112.25 47 M112.25 47 C83.12 49.51, 52.24 47.45, 11.75 47 M112.25 47 C84.16 48.06, 56.82 47.65, 11.75 47 M11.75 47 C3.8 46.37, 0.15 41.95, 0 35.25 M11.75 47 C4.21 47.82, -1.06 42.39, 0 35.25 M0 35.25 C0.54 25.78, 1.76 16.17, 0 11.75 M0 35.25 C-0.21 31.19, -0.29 24.59, 0 11.75 M0 11.75 C-1.48 4.98, 4.81 1.01, 11.75 0 M0 11.75 C2.22 4.97, 4.72 -0.33, 11.75 0" stroke="#000000" stroke-width="1" fill="none"></path></g><g transform="translate(40.433332443237305 33.8) rotate(0 31.566667556762695 9.200000000000001)"><text x="31.566667556762695" y="0" font-family="Helvetica, Segoe UI Emoji" font-size="16px" fill="#000000" text-anchor="middle" style="white-space: pre;" direction="ltr" dominant-baseline="text-before-edge">useState</text></g><g stroke-linecap="round" transform="translate(212 11.5) rotate(0 89 30.5)"><path d="M15.25 0 M15.25 0 C65.33 -0.59, 119.95 1.66, 162.75 0 M15.25 0 C64.46 0.09, 115.1 -0.01, 162.75 0 M162.75 0 C171.72 -1.87, 179.08 6.95, 178 15.25 M162.75 0 C170.9 -1.64, 176.32 4.47, 178 15.25 M178 15.25 C177.71 27.29, 178.7 36.35, 178 45.75 M178 15.25 C176.99 20.9, 178.69 27.45, 178 45.75 M178 45.75 C176.86 55.99, 172.31 59.09, 162.75 61 M178 45.75 C178.67 56.4, 173.48 59.97, 162.75 61 M162.75 61 C108.13 60.68, 52.14 60.53, 15.25 61 M162.75 61 C115.18 60.19, 70.23 61.55, 15.25 61 M15.25 61 C4.76 61.24, -1.16 57.33, 0 45.75 M15.25 61 C5.03 62.06, 2.27 57.74, 0 45.75 M0 45.75 C-1.5 38.41, -0.19 27.49, 0 15.25 M0 45.75 C-0.77 35.04, 0.13 23.91, 0 15.25 M0 15.25 C0.75 4.92, 5.27 -0.82, 15.25 0 M0 15.25 C-2.23 6.12, 4.3 -1.73, 15.25 0" stroke="#000000" stroke-width="1" fill="none"></path></g><g transform="translate(218.73332977294922 23.6) rotate(0 82.26667022705078 18.4)"><text x="82.26667022705078" y="0" font-family="Helvetica, Segoe UI Emoji" font-size="16px" fill="#000000" text-anchor="middle" style="white-space: pre;" direction="ltr" dominant-baseline="text-before-edge">通过 resolveDispatcher</text><text x="82.26667022705078" y="18.4" font-family="Helvetica, Segoe UI Emoji" font-size="16px" fill="#000000" text-anchor="middle" style="white-space: pre;" direction="ltr" dominant-baseline="text-before-edge">调用 dispatcher</text></g><g stroke-linecap="round" transform="translate(460 10) rotate(0 84.5 33)"><path d="M16.5 0 M16.5 0 C46.52 -1.36, 78.49 0.44, 152.5 0 M16.5 0 C58.14 -0.3, 98.62 0.56, 152.5 0 M152.5 0 C162.82 -1.5, 170.71 7.09, 169 16.5 M152.5 0 C165.06 -0.7, 169.41 3.33, 169 16.5 M169 16.5 C168.04 25.38, 168.63 36.83, 169 49.5 M169 16.5 C169.75 25.08, 168.25 32.6, 169 49.5 M169 49.5 C170.23 59.04, 163.32 65.17, 152.5 66 M169 49.5 C168.68 61.86, 163.06 67, 152.5 66 M152.5 66 C120.55 65.33, 87.71 65.41, 16.5 66 M152.5 66 C113.87 68.08, 73.56 67.69, 16.5 66 M16.5 66 C6.44 64.34, 0.54 59.32, 0 49.5 M16.5 66 C4.67 65.77, -0.6 62.33, 0 49.5 M0 49.5 C0.86 42.52, 0.84 30.23, 0 16.5 M0 49.5 C0.42 40.57, 0 30.88, 0 16.5 M0 16.5 C-1.58 4.74, 7.33 -0.71, 16.5 0 M0 16.5 C-0.37 4.02, 4.36 2.03, 16.5 0" stroke="#000000" stroke-width="1" fill="none"></path></g><g transform="translate(474.25 24.6) rotate(0 70.25 18.4)"><text x="70.25" y="0" font-family="Helvetica, Segoe UI Emoji" font-size="16px" fill="#000000" text-anchor="middle" style="white-space: pre;" direction="ltr" dominant-baseline="text-before-edge">调用</text><text x="70.25" y="18.4" font-family="Helvetica, Segoe UI Emoji" font-size="16px" fill="#000000" text-anchor="middle" style="white-space: pre;" direction="ltr" dominant-baseline="text-before-edge">dispatcher.useState</text></g><g stroke-linecap="round" transform="translate(457 142.6632537841797) rotate(0 86.5 23.5)"><path d="M1.9 4.3 C1.9 4.3, 1.9 4.3, 1.9 4.3 M1.9 4.3 C1.9 4.3, 1.9 4.3, 1.9 4.3 M1.64 10.7 C3.81 7.83, 5.85 5.49, 7.54 3.91 M1.64 10.7 C2.97 8.64, 5.34 6.35, 7.54 3.91 M2.03 16.34 C6.84 11.83, 10.18 6.95, 14.5 2 M2.03 16.34 C6.29 12.14, 10.57 6.43, 14.5 2 M1.77 22.74 C9.45 15.69, 15.07 8.8, 19.49 2.36 M1.77 22.74 C5.2 18.33, 9.14 14.81, 19.49 2.36 M2.17 28.38 C9.14 23.11, 15.29 12.58, 25.13 1.97 M2.17 28.38 C9.19 21.45, 15.4 13.65, 25.13 1.97 M1.91 34.78 C7.55 27.04, 13.21 19.2, 30.12 2.33 M1.91 34.78 C13.46 21.4, 23.69 9.54, 30.12 2.33 M2.3 40.43 C13.18 29.29, 24.03 15.39, 35.1 2.69 M2.3 40.43 C12.4 29.18, 22.76 16.21, 35.1 2.69 M4.01 44.56 C17.43 27.46, 33.3 12.47, 40.75 2.3 M4.01 44.56 C14.69 32.71, 23.21 21.61, 40.75 2.3 M7.03 47.18 C22.26 32.42, 34.77 12.35, 45.73 2.66 M7.03 47.18 C19.83 32.98, 30.01 20.03, 45.73 2.66 M12.67 46.79 C25.22 33.86, 34.83 20.81, 51.38 2.26 M12.67 46.79 C26.66 29.85, 40.02 15.26, 51.38 2.26 M17.66 47.15 C32.34 32.63, 42.09 19.51, 56.36 2.62 M17.66 47.15 C31.58 31.06, 47.13 14.01, 56.36 2.62 M23.3 46.75 C35.67 32.69, 47.2 17.8, 62.01 2.23 M23.3 46.75 C32.59 36.52, 42.61 24.04, 62.01 2.23 M28.29 47.11 C41.54 33.17, 55.09 13.7, 66.99 2.59 M28.29 47.11 C37.29 37.81, 44.39 28.52, 66.99 2.59 M33.93 46.72 C45.19 31.5, 60.17 15.52, 72.64 2.19 M33.93 46.72 C47.52 31.18, 61.37 13.68, 72.64 2.19 M38.92 47.08 C54.89 29.23, 65.65 13.46, 77.62 2.55 M38.92 47.08 C53.65 30.4, 69.15 13.95, 77.62 2.55 M44.56 46.69 C53.96 36.15, 65.92 22.45, 82.61 2.91 M44.56 46.69 C58.91 29.68, 74.27 12.3, 82.61 2.91 M49.55 47.05 C61.02 32.83, 74.61 16.5, 88.25 2.52 M49.55 47.05 C63.89 29.99, 79.71 12.32, 88.25 2.52 M54.53 47.41 C67.22 30.68, 81.23 15.15, 93.24 2.88 M54.53 47.41 C65.65 32.86, 78.56 19.75, 93.24 2.88 M60.18 47.01 C74.44 29.23, 89.93 11.54, 98.88 2.48 M60.18 47.01 C68.37 35.01, 77.95 25.74, 98.88 2.48 M65.16 47.37 C82.43 30.47, 94.19 13.45, 103.87 2.84 M65.16 47.37 C79.01 31.77, 92.91 15.42, 103.87 2.84 M70.81 46.98 C83.53 30.38, 99.31 14.12, 109.51 2.45 M70.81 46.98 C81.48 34.62, 92.4 22.36, 109.51 2.45 M75.79 47.34 C90.38 28.18, 106.03 13.35, 114.5 2.81 M75.79 47.34 C91.38 29.77, 105.75 12.49, 114.5 2.81 M81.44 46.94 C91.02 37.42, 98.02 26.8, 120.14 2.41 M81.44 46.94 C93.39 33.15, 105.07 20.83, 120.14 2.41 M86.42 47.3 C96.67 36.3, 104.19 23.75, 125.13 2.77 M86.42 47.3 C94.68 37.48, 103.96 29.02, 125.13 2.77 M92.07 46.91 C105.14 32.37, 119.44 17.77, 130.12 3.13 M92.07 46.91 C102.82 34.34, 113.24 21.66, 130.12 3.13 M97.05 47.27 C106.56 34.96, 118.7 23.97, 135.76 2.74 M97.05 47.27 C106.7 37.92, 114.53 27.64, 135.76 2.74 M102.04 47.63 C114.86 29.95, 129.15 17.2, 140.75 3.1 M102.04 47.63 C112.66 34.52, 124.08 21.7, 140.75 3.1 M107.68 47.23 C117.07 34.45, 127.37 22.24, 146.39 2.71 M107.68 47.23 C120.21 33.17, 131.15 21.17, 146.39 2.71 M112.67 47.59 C123.52 35.98, 134.56 24.44, 151.38 3.07 M112.67 47.59 C125.9 32.92, 136.82 19.11, 151.38 3.07 M118.31 47.2 C130.05 33.66, 144.04 18.98, 157.02 2.67 M118.31 47.2 C133.09 29.98, 149.65 11.97, 157.02 2.67 M123.3 47.56 C137.51 33.97, 148.26 17.29, 162.01 3.03 M123.3 47.56 C131.52 36.98, 140.69 26.97, 162.01 3.03 M128.94 47.16 C142.77 31.54, 157.76 15.39, 168.31 1.88 M128.94 47.16 C143.23 31.77, 155.26 16.15, 168.31 1.88 M133.93 47.52 C147.2 30.96, 163.96 14.06, 171.33 4.51 M133.93 47.52 C143.41 36.32, 151.87 26.37, 171.33 4.51 M139.57 47.13 C152.47 35.41, 162.44 20.4, 173.69 7.88 M139.57 47.13 C153.33 31.45, 165.85 17.47, 173.69 7.88 M144.56 47.49 C151.48 36.8, 161.48 26.48, 176.05 11.26 M144.56 47.49 C153.07 37.71, 162.95 26.93, 176.05 11.26 M149.55 47.85 C160.56 38.24, 166.91 28.75, 175.79 17.66 M149.55 47.85 C157.59 38.68, 165.22 28.16, 175.79 17.66 M155.19 47.46 C160.52 39.92, 164.66 33.49, 175.53 24.06 M155.19 47.46 C162.9 37.43, 171.2 29.15, 175.53 24.06 M160.18 47.82 C162.5 45.49, 166.67 39.97, 175.27 30.46 M160.18 47.82 C163.44 43.44, 168.1 39.03, 175.27 30.46 M163.85 49.68 C167.17 48.03, 169.78 45.41, 175.66 36.1 M163.85 49.68 C167.52 45.86, 171.42 40.82, 175.66 36.1" stroke="#fab005" stroke-width="0.5" fill="none"></path><path d="M11.75 0 M11.75 0 C44.69 -0.18, 80.69 0.04, 161.25 0 M11.75 0 C68.48 -0.23, 124.83 -0.46, 161.25 0 M161.25 0 C168.23 1.13, 174.09 4.55, 173 11.75 M161.25 0 C169.43 -1.43, 171.43 4.26, 173 11.75 M173 11.75 C173.66 21.14, 172.22 30.53, 173 35.25 M173 11.75 C172.6 21.19, 173.99 29.88, 173 35.25 M173 35.25 C174.6 44.94, 168.48 46.64, 161.25 47 M173 35.25 C173.31 43.55, 167.66 48.03, 161.25 47 M161.25 47 C126.65 49.12, 95.36 48.44, 11.75 47 M161.25 47 C104.74 45.38, 49.14 45.12, 11.75 47 M11.75 47 C2.64 47.84, -0.73 44.02, 0 35.25 M11.75 47 C3.73 48.68, -1.44 44.27, 0 35.25 M0 35.25 C-0.46 29.87, -1.77 22.63, 0 11.75 M0 35.25 C0.63 28.72, 0.2 20.88, 0 11.75 M0 11.75 C1.03 4.77, 4.26 -0.42, 11.75 0 M0 11.75 C-0.62 4.56, 5.7 0.25, 11.75 0" stroke="#000000" stroke-width="1" fill="none"></path></g><g transform="translate(482.1500015258789 156.9632537841797) rotate(0 61.349998474121094 9.200000000000003)"><text x="61.349998474121094" y="0" font-family="Helvetica, Segoe UI Emoji" font-size="16px" fill="#000000" text-anchor="middle" style="white-space: pre;" direction="ltr" dominant-baseline="text-before-edge">调用 updateState</text></g><g stroke-linecap="round" transform="translate(214 142.6632537841797) rotate(0 83 23.5)"><path d="M1.9 4.3 C1.9 4.3, 1.9 4.3, 1.9 4.3 M1.9 4.3 C1.9 4.3, 1.9 4.3, 1.9 4.3 M1.64 10.7 C3.33 8.9, 5.69 6.72, 7.54 3.91 M1.64 10.7 C3.86 9.06, 5.52 6.7, 7.54 3.91 M2.03 16.34 C6.66 10.51, 9.64 6.64, 14.5 2 M2.03 16.34 C4.66 12.74, 9.05 9.42, 14.5 2 M1.77 22.74 C7.48 15.2, 14.36 10.47, 19.49 2.36 M1.77 22.74 C6.55 17.78, 11.8 10.68, 19.49 2.36 M2.17 28.38 C7.64 22.52, 14.31 14.31, 25.13 1.97 M2.17 28.38 C9.47 20.25, 15.73 13.49, 25.13 1.97 M1.91 34.78 C12.85 21.19, 21.63 12.65, 30.12 2.33 M1.91 34.78 C8.39 26.86, 14.57 19.11, 30.12 2.33 M2.3 40.43 C14.47 26.65, 24.7 15.64, 35.1 2.69 M2.3 40.43 C8.65 31.4, 17.18 24.08, 35.1 2.69 M4.01 44.56 C13.16 36.56, 22.66 25.41, 40.75 2.3 M4.01 44.56 C11.02 35.26, 19.01 27.47, 40.75 2.3 M7.03 47.18 C16.39 36.05, 23.37 26.31, 45.73 2.66 M7.03 47.18 C14.66 36.49, 24.43 27.48, 45.73 2.66 M12.67 46.79 C22.64 37.19, 29.1 28.14, 51.38 2.26 M12.67 46.79 C26.64 31.05, 40.74 14.39, 51.38 2.26 M17.66 47.15 C29.49 31.46, 41.2 20.49, 56.36 2.62 M17.66 47.15 C26.83 36.82, 34.46 28.41, 56.36 2.62 M23.3 46.75 C33.69 36.2, 46.41 23.25, 62.01 2.23 M23.3 46.75 C30.76 37.5, 38.66 27.29, 62.01 2.23 M28.29 47.11 C40.34 34.68, 51.81 20.85, 66.99 2.59 M28.29 47.11 C38.39 35, 50.74 21.61, 66.99 2.59 M33.93 46.72 C42.25 34.77, 51.25 26.4, 72.64 2.19 M33.93 46.72 C47.58 30.66, 60.08 16.59, 72.64 2.19 M38.92 47.08 C53.98 29.7, 68.32 12.26, 77.62 2.55 M38.92 47.08 C49.14 35.72, 58.15 24.36, 77.62 2.55 M44.56 46.69 C58.34 32.43, 66.7 20.85, 82.61 2.91 M44.56 46.69 C55.19 34.26, 64.87 21.81, 82.61 2.91 M49.55 47.05 C61.36 34.79, 69.94 20.76, 88.25 2.52 M49.55 47.05 C63.44 31.32, 75.66 16.19, 88.25 2.52 M54.53 47.41 C67.16 36.64, 74.06 21.54, 93.24 2.88 M54.53 47.41 C62.29 38.01, 71.37 28.73, 93.24 2.88 M60.18 47.01 C66.08 39.2, 75.41 29.23, 98.88 2.48 M60.18 47.01 C73.21 31.87, 84.27 18.24, 98.88 2.48 M65.16 47.37 C76.72 32.44, 89.26 18.94, 103.87 2.84 M65.16 47.37 C77.5 34.17, 88.69 19.13, 103.87 2.84 M70.81 46.98 C83.78 34.99, 95.22 20.44, 109.51 2.45 M70.81 46.98 C81.17 35.11, 93.29 21.92, 109.51 2.45 M75.79 47.34 C89.56 33.28, 101.48 18.71, 114.5 2.81 M75.79 47.34 C89.37 31.46, 104.99 14.03, 114.5 2.81 M81.44 46.94 C90.26 35.25, 100.17 24.59, 120.14 2.41 M81.44 46.94 C94.64 31.58, 108.56 15.51, 120.14 2.41 M86.42 47.3 C101.23 32.22, 113.99 15.84, 125.13 2.77 M86.42 47.3 C93.67 38.82, 101.48 29.12, 125.13 2.77 M91.41 47.66 C104.98 29.17, 123.42 13.39, 130.12 3.13 M91.41 47.66 C104.97 32.83, 118.24 15.63, 130.12 3.13 M97.05 47.27 C109.62 35.06, 118.32 21.8, 135.76 2.74 M97.05 47.27 C105.02 37.26, 113.25 27.21, 135.76 2.74 M102.04 47.63 C110.55 36.05, 121.89 24.91, 140.75 3.1 M102.04 47.63 C114.24 34.08, 124.95 21.68, 140.75 3.1 M107.68 47.23 C120 31.6, 134.47 16.6, 146.39 2.71 M107.68 47.23 C117.73 36.03, 125.9 26.35, 146.39 2.71 M112.67 47.59 C126.5 29.3, 139.65 14.93, 151.38 3.07 M112.67 47.59 C125.18 31.33, 139.68 17.43, 151.38 3.07 M118.31 47.2 C127.38 38.09, 134.31 27.35, 157.02 2.67 M118.31 47.2 C129.5 32.74, 141.99 19.78, 157.02 2.67 M123.3 47.56 C136.64 33.32, 149.94 19.38, 162.01 3.03 M123.3 47.56 C131.88 35.62, 141.25 25.47, 162.01 3.03 M128.94 47.16 C141.3 32.99, 152.4 19.73, 165.68 4.9 M128.94 47.16 C138.71 36.77, 148.5 26.27, 165.68 4.9 M133.93 47.52 C144.23 34.69, 154.39 23.77, 166.73 9.79 M133.93 47.52 C142.3 37.22, 150.09 27.22, 166.73 9.79 M138.92 47.88 C148.65 40.51, 154.4 31.56, 166.47 16.19 M138.92 47.88 C147.94 35.32, 159.89 24.75, 166.47 16.19 M144.56 47.49 C151.96 42.6, 156.41 34.93, 166.21 22.58 M144.56 47.49 C150.65 41.39, 156.76 33.14, 166.21 22.58 M149.55 47.85 C154.01 41.31, 156.75 36.96, 166.61 28.23 M149.55 47.85 C153.61 42.57, 158.44 37.8, 166.61 28.23 M155.19 47.46 C158.35 44.62, 159.53 41.53, 166.34 34.63 M155.19 47.46 C158.91 43.81, 161.58 41.16, 166.34 34.63" stroke="#fab005" stroke-width="0.5" fill="none"></path><path d="M11.75 0 M11.75 0 C58.76 1.52, 108.73 0.97, 154.25 0 M11.75 0 C55.49 1.1, 98.85 0.97, 154.25 0 M154.25 0 C161.46 0.25, 167.6 2.17, 166 11.75 M154.25 0 C161.32 -0.15, 164.33 2.75, 166 11.75 M166 11.75 C166.99 17.18, 166.2 20.1, 166 35.25 M166 11.75 C166.1 16.65, 166.36 22.75, 166 35.25 M166 35.25 C165.21 43.57, 163.63 47.56, 154.25 47 M166 35.25 C167.43 42, 163.4 49.12, 154.25 47 M154.25 47 C105.3 47.96, 57.84 48.73, 11.75 47 M154.25 47 C121.18 46.77, 85.83 46.35, 11.75 47 M11.75 47 C5.12 47.17, 1.45 42.28, 0 35.25 M11.75 47 C1.94 45.13, -0.76 41.45, 0 35.25 M0 35.25 C-0.58 30.53, -0.01 25.39, 0 11.75 M0 35.25 C0.87 30.53, -0.24 24.09, 0 11.75 M0 11.75 C-1.54 2.05, 4.03 -0.6, 11.75 0 M0 11.75 C0.3 5.2, 5.41 0.31, 11.75 0" stroke="#000000" stroke-width="1" fill="none"></path></g><g transform="translate(224.06666564941406 156.9632537841797) rotate(0 72.93333435058594 9.200000000000003)"><text x="72.93333435058594" y="0" font-family="Helvetica, Segoe UI Emoji" font-size="16px" fill="#000000" text-anchor="middle" style="white-space: pre;" direction="ltr" dominant-baseline="text-before-edge">调用 updateReducer</text></g><g stroke-linecap="round"><g transform="translate(135.29787234042556 37.80461917457049) rotate(0 35.8355962872979 -0.27646981145946903)"><path d="M0.41 0.88 C12.69 0.65, 60.6 -1.04, 72.5 -1.43 M-0.83 0.3 C11.48 0.2, 60.06 -0.17, 72.07 -0.32" stroke="#000000" stroke-width="1" fill="none"></path></g><g transform="translate(135.29787234042556 37.80461917457049) rotate(0 35.8355962872979 -0.27646981145946903)"><path d="M45.45 11.86 C48.38 8.5, 54.02 6.64, 70.4 1.09 M43.9 9.9 C50.92 7.81, 57.72 6.07, 72.89 0.28" stroke="#000000" stroke-width="1" fill="none"></path></g><g transform="translate(135.29787234042556 37.80461917457049) rotate(0 35.8355962872979 -0.27646981145946903)"><path d="M45.25 -8.66 C48.21 -7.83, 53.9 -5.51, 70.4 1.09 M43.7 -10.62 C50.59 -8.01, 57.43 -5.05, 72.89 0.28" stroke="#000000" stroke-width="1" fill="none"></path></g></g><mask></mask><g stroke-linecap="round"><g transform="translate(399.08510638297867 40.73146385793403) rotate(0 28.905394181548957 0.061800433976328506)"><path d="M-0.77 0.86 C8.55 0.59, 46.76 -0.81, 56.49 -0.73 M1.02 0.26 C10.64 0.03, 49.28 0.41, 58.58 0.29" stroke="#000000" stroke-width="1" fill="none"></path></g><g transform="translate(399.08510638297867 40.73146385793403) rotate(0 28.905394181548957 0.061800433976328506)"><path d="M32.92 8.19 C39.15 6.84, 51.98 3.44, 57.88 -0.12 M31.58 9.27 C39.95 6.29, 48.28 3.57, 58.06 0.22" stroke="#000000" stroke-width="1" fill="none"></path></g><g transform="translate(399.08510638297867 40.73146385793403) rotate(0 28.905394181548957 0.061800433976328506)"><path d="M32.92 -11.53 C39.3 -6.05, 52.12 -2.63, 57.88 -0.12 M31.58 -10.45 C39.92 -7.6, 48.26 -4.49, 58.06 0.22" stroke="#000000" stroke-width="1" fill="none"></path></g></g><mask></mask><g stroke-linecap="round"><g transform="translate(454 165.9753376741779) rotate(0 -36.07268419817086 0.18791611000179387)"><path d="M-1.05 0.24 C-13.27 0.29, -60.97 -0.15, -72.75 -0.36 M0.6 -0.68 C-11.29 -0.4, -58.27 0.96, -70.43 1.06" stroke="#000000" stroke-width="1" fill="none"></path></g><g transform="translate(454 165.9753376741779) rotate(0 -36.07268419817086 0.18791611000179387)"><path d="M-42.05 -11 C-52.68 -5.79, -63.52 -3.46, -68.44 0.36 M-41.65 -9.24 C-53.04 -6.22, -62.37 -2.8, -70.01 1.56" stroke="#000000" stroke-width="1" fill="none"></path></g><g transform="translate(454 165.9753376741779) rotate(0 -36.07268419817086 0.18791611000179387)"><path d="M-41.64 9.52 C-52.31 7.55, -63.29 2.71, -68.44 0.36 M-41.25 11.28 C-52.87 7.12, -62.35 3.36, -70.01 1.56" stroke="#000000" stroke-width="1" fill="none"></path></g></g><mask></mask><g stroke-linecap="round"><g transform="translate(543.7455272916709 80.57650756835938) rotate(0 -0.04990177098591175 29.7049727871269)"><path d="M0.23 -0.34 C0.41 9.51, 0.86 49.59, 1.01 59.63 M-1.11 -1.57 C-1.05 8.41, -0.03 50.51, 0.26 60.98" stroke="#000000" stroke-width="1" fill="none"></path></g><g transform="translate(543.7455272916709 80.57650756835938) rotate(0 -0.04990177098591175 29.7049727871269)"><path d="M-11.28 33.69 C-7.97 42.07, -4.22 48.48, 1.07 59.58 M-10.25 32.22 C-8.21 37.87, -6.88 43.47, -0.22 60.03" stroke="#000000" stroke-width="1" fill="none"></path></g><g transform="translate(543.7455272916709 80.57650756835938) rotate(0 -0.04990177098591175 29.7049727871269)"><path d="M9.23 33.16 C6.5 41.74, 4.21 48.31, 1.07 59.58 M10.26 31.7 C8.11 37.62, 5.24 43.33, -0.22 60.03" stroke="#000000" stroke-width="1" fill="none"></path></g></g><mask></mask><g stroke-linecap="round" transform="translate(15.5001220703125 142.6632537841797) rotate(0 62 23.5)"><path d="M11.75 0 M11.75 0 C33.96 -1.54, 56.64 -0.25, 112.25 0 M11.75 0 C41.09 -0.02, 69.44 0.1, 112.25 0 M112.25 0 C119.39 1.02, 123.52 3.92, 124 11.75 M112.25 0 C119.44 -1.4, 125.29 4.25, 124 11.75 M124 11.75 C126.12 17.11, 123.15 26.05, 124 35.25 M124 11.75 C124.18 20.83, 123.79 28.49, 124 35.25 M124 35.25 C125.42 43.91, 118.68 45.63, 112.25 47 M124 35.25 C122.21 43.36, 118.53 47.65, 112.25 47 M112.25 47 C78.96 48.16, 44.78 46.05, 11.75 47 M112.25 47 C80.1 46.05, 46.07 46.6, 11.75 47 M11.75 47 C2.7 45.57, 0.12 43.62, 0 35.25 M11.75 47 C4.54 44.76, -1.77 45.37, 0 35.25 M0 35.25 C-0.43 27.44, 2.05 19.8, 0 11.75 M0 35.25 C0.32 26.5, -0.04 18.15, 0 11.75 M0 11.75 C-1.57 4.94, 3.6 0.33, 11.75 0 M0 11.75 C-0.47 3.92, 4.31 0.89, 11.75 0" stroke="#000000" stroke-width="1" fill="none"></path></g><g transform="translate(29.5001220703125 156.9632537841797) rotate(0 48 9.200000000000003)"><text x="48" y="0" font-family="Helvetica, Segoe UI Emoji" font-size="16px" fill="#000000" text-anchor="middle" style="white-space: pre;" direction="ltr" dominant-baseline="text-before-edge">返回目标数组</text></g><g stroke-linecap="round"><g transform="translate(211.5001220703125 166.33661785772446) rotate(0 -31.544323481377205 -0.173364073544775)"><path d="M-0.26 -0.03 C-11.06 0.17, -53.62 0.9, -64.31 0.78 M1.8 -1.09 C-9.14 -1.19, -53.79 -1.14, -64.89 -0.93" stroke="#000000" stroke-width="1" fill="none"></path></g><g transform="translate(211.5001220703125 166.33661785772446) rotate(0 -31.544323481377205 -0.173364073544775)"><path d="M-36.83 -10.28 C-45.1 -6.86, -57.22 -2.63, -65.2 -2.87 M-37 -11.6 C-44.05 -9.29, -50.22 -5.54, -65.28 -0.79" stroke="#000000" stroke-width="1" fill="none"></path></g><g transform="translate(211.5001220703125 166.33661785772446) rotate(0 -31.544323481377205 -0.173364073544775)"><path d="M-36.66 10.24 C-44.91 6.67, -57.1 3.91, -65.2 -2.87 M-36.83 8.92 C-44.03 6.16, -50.25 4.83, -65.28 -0.79" stroke="#000000" stroke-width="1" fill="none"></path></g></g><mask></mask></svg>