<svg version="1.1" xmlns="http://www.w3.org/2000/svg" viewBox="0 0 640 201.75" width="640" height="201.75">
  <!-- svg-source:excalidraw -->
  
  <defs>
    <style class="style-fonts">
      @font-face {
        font-family: "Virgil";
        src: url("https://excalidraw.com/Virgil.woff2");
      }
      @font-face {
        font-family: "Cascadia";
        src: url("https://excalidraw.com/Cascadia.woff2");
      }
    </style>
  </defs>
  <g stroke-linecap="round" transform="translate(10 13) rotate(0 62 23.5)"><path d="M11.75 0 M11.75 0 C46.25 -0.72, 83.46 2.52, 112.25 0 M11.75 0 C44.38 0.47, 78.52 1.26, 112.25 0 M112.25 0 C119.33 1.83, 125.22 4.83, 124 11.75 M112.25 0 C121.96 -0.5, 124.12 5.32, 124 11.75 M124 11.75 C122.37 18.73, 122.32 20.63, 124 35.25 M124 11.75 C124.27 18.4, 124.68 24.26, 124 35.25 M124 35.25 C125.24 42.11, 121.96 45.87, 112.25 47 M124 35.25 C123.44 43.89, 122.23 45.29, 112.25 47 M112.25 47 C83.12 49.51, 52.24 47.45, 11.75 47 M112.25 47 C84.16 48.06, 56.82 47.65, 11.75 47 M11.75 47 C3.8 46.37, 0.15 41.95, 0 35.25 M11.75 47 C4.21 47.82, -1.06 42.39, 0 35.25 M0 35.25 C0.54 25.78, 1.76 16.17, 0 11.75 M0 35.25 C-0.21 31.19, -0.29 24.59, 0 11.75 M0 11.75 C-1.48 4.98, 4.81 1.01, 11.75 0 M0 11.75 C2.22 4.97, 4.72 -0.33, 11.75 0" stroke="#000000" stroke-width="1" fill="none"></path></g><g transform="translate(40.433332443237305 27.3) rotate(0 31.566667556762695 9.2)"><text x="31.566667556762695" y="0" font-family="Helvetica, Segoe UI Emoji" font-size="16px" fill="#000000" text-anchor="middle" style="white-space: pre;" direction="ltr" dominant-baseline="text-before-edge">useState</text></g><g stroke-linecap="round" transform="translate(212 10) rotate(0 89 29.5)"><path d="M14.75 0 M14.75 0 C65.18 -0.58, 120.15 1.66, 163.25 0 M14.75 0 C64.3 0.08, 115.28 -0.01, 163.25 0 M163.25 0 C171.89 -1.87, 179.08 6.78, 178 14.75 M163.25 0 C171.06 -1.64, 176.32 4.3, 178 14.75 M178 14.75 C177.71 26.42, 178.7 35.11, 178 44.25 M178 14.75 C177 20.2, 178.7 26.54, 178 44.25 M178 44.25 C176.86 54.16, 172.47 57.09, 163.25 59 M178 44.25 C178.67 54.57, 173.65 57.97, 163.25 59 M163.25 59 C108.25 58.68, 51.87 58.54, 14.75 59 M163.25 59 C115.36 58.19, 70.1 59.55, 14.75 59 M14.75 59 C4.59 59.24, -1.16 55.49, 0 44.25 M14.75 59 C4.86 60.06, 2.27 55.9, 0 44.25 M0 44.25 C-1.5 37.18, -0.19 26.54, 0 14.75 M0 44.25 C-0.77 33.9, 0.13 23.13, 0 14.75 M0 14.75 C0.75 4.75, 5.1 -0.82, 14.75 0 M0 14.75 C-2.23 5.95, 4.14 -1.73, 14.75 0" stroke="#000000" stroke-width="1" fill="none"></path></g><g transform="translate(218.73332977294922 21.1) rotate(0 82.26667022705078 18.4)"><text x="82.26667022705078" y="0" font-family="Helvetica, Segoe UI Emoji" font-size="16px" fill="#000000" text-anchor="middle" style="white-space: pre;" direction="ltr" dominant-baseline="text-before-edge">通过 resolveDispatcher</text><text x="82.26667022705078" y="18.4" font-family="Helvetica, Segoe UI Emoji" font-size="16px" fill="#000000" text-anchor="middle" style="white-space: pre;" direction="ltr" dominant-baseline="text-before-edge">调用 dispatcher</text></g><g stroke-linecap="round" transform="translate(460 13) rotate(0 84.5 33)"><path d="M16.5 0 M16.5 0 C46.52 -1.36, 78.49 0.44, 152.5 0 M16.5 0 C58.14 -0.3, 98.62 0.56, 152.5 0 M152.5 0 C162.82 -1.5, 170.71 7.09, 169 16.5 M152.5 0 C165.06 -0.7, 169.41 3.33, 169 16.5 M169 16.5 C168.04 25.38, 168.63 36.83, 169 49.5 M169 16.5 C169.75 25.08, 168.25 32.6, 169 49.5 M169 49.5 C170.23 59.04, 163.32 65.17, 152.5 66 M169 49.5 C168.68 61.86, 163.06 67, 152.5 66 M152.5 66 C120.55 65.33, 87.71 65.41, 16.5 66 M152.5 66 C113.87 68.08, 73.56 67.69, 16.5 66 M16.5 66 C6.44 64.34, 0.54 59.32, 0 49.5 M16.5 66 C4.67 65.77, -0.6 62.33, 0 49.5 M0 49.5 C0.86 42.52, 0.84 30.23, 0 16.5 M0 49.5 C0.42 40.57, 0 30.88, 0 16.5 M0 16.5 C-1.58 4.74, 7.33 -0.71, 16.5 0 M0 16.5 C-0.37 4.02, 4.36 2.03, 16.5 0" stroke="#000000" stroke-width="1" fill="none"></path></g><g transform="translate(474.25 27.6) rotate(0 70.25 18.4)"><text x="70.25" y="0" font-family="Helvetica, Segoe UI Emoji" font-size="16px" fill="#000000" text-anchor="middle" style="white-space: pre;" direction="ltr" dominant-baseline="text-before-edge">调用</text><text x="70.25" y="18.4" font-family="Helvetica, Segoe UI Emoji" font-size="16px" fill="#000000" text-anchor="middle" style="white-space: pre;" direction="ltr" dominant-baseline="text-before-edge">dispatcher.useState</text></g><g stroke-linecap="round" transform="translate(457 144.75) rotate(0 86.5 23.5)"><path d="M1.9 4.3 C1.9 4.3, 1.9 4.3, 1.9 4.3 M1.9 4.3 C1.9 4.3, 1.9 4.3, 1.9 4.3 M1.64 10.7 C3.81 7.83, 5.85 5.49, 7.54 3.91 M1.64 10.7 C2.97 8.64, 5.34 6.35, 7.54 3.91 M2.03 16.34 C6.84 11.83, 10.18 6.95, 14.5 2 M2.03 16.34 C6.29 12.14, 10.57 6.43, 14.5 2 M1.77 22.74 C9.45 15.69, 15.07 8.8, 19.49 2.36 M1.77 22.74 C5.2 18.33, 9.14 14.81, 19.49 2.36 M2.17 28.38 C9.14 23.11, 15.29 12.58, 25.13 1.97 M2.17 28.38 C9.19 21.45, 15.4 13.65, 25.13 1.97 M1.91 34.78 C7.55 27.04, 13.21 19.2, 30.12 2.33 M1.91 34.78 C13.46 21.4, 23.69 9.54, 30.12 2.33 M2.3 40.43 C13.18 29.29, 24.03 15.39, 35.1 2.69 M2.3 40.43 C12.4 29.18, 22.76 16.21, 35.1 2.69 M4.01 44.56 C17.43 27.46, 33.3 12.47, 40.75 2.3 M4.01 44.56 C14.69 32.71, 23.21 21.61, 40.75 2.3 M7.03 47.18 C22.26 32.42, 34.77 12.35, 45.73 2.66 M7.03 47.18 C19.83 32.98, 30.01 20.03, 45.73 2.66 M12.67 46.79 C25.22 33.86, 34.83 20.81, 51.38 2.26 M12.67 46.79 C26.66 29.85, 40.02 15.26, 51.38 2.26 M17.66 47.15 C32.34 32.63, 42.09 19.51, 56.36 2.62 M17.66 47.15 C31.58 31.06, 47.13 14.01, 56.36 2.62 M23.3 46.75 C35.67 32.69, 47.2 17.8, 62.01 2.23 M23.3 46.75 C32.59 36.52, 42.61 24.04, 62.01 2.23 M28.29 47.11 C41.54 33.17, 55.09 13.7, 66.99 2.59 M28.29 47.11 C37.29 37.81, 44.39 28.52, 66.99 2.59 M33.93 46.72 C45.19 31.5, 60.17 15.52, 72.64 2.19 M33.93 46.72 C47.52 31.18, 61.37 13.68, 72.64 2.19 M38.92 47.08 C54.89 29.23, 65.65 13.46, 77.62 2.55 M38.92 47.08 C53.65 30.4, 69.15 13.95, 77.62 2.55 M44.56 46.69 C53.96 36.15, 65.92 22.45, 82.61 2.91 M44.56 46.69 C58.91 29.68, 74.27 12.3, 82.61 2.91 M49.55 47.05 C61.02 32.83, 74.61 16.5, 88.25 2.52 M49.55 47.05 C63.89 29.99, 79.71 12.32, 88.25 2.52 M54.53 47.41 C67.22 30.68, 81.23 15.15, 93.24 2.88 M54.53 47.41 C65.65 32.86, 78.56 19.75, 93.24 2.88 M60.18 47.01 C74.44 29.23, 89.93 11.54, 98.88 2.48 M60.18 47.01 C68.37 35.01, 77.95 25.74, 98.88 2.48 M65.16 47.37 C82.43 30.47, 94.19 13.45, 103.87 2.84 M65.16 47.37 C79.01 31.77, 92.91 15.42, 103.87 2.84 M70.81 46.98 C83.53 30.38, 99.31 14.12, 109.51 2.45 M70.81 46.98 C81.48 34.62, 92.4 22.36, 109.51 2.45 M75.79 47.34 C90.38 28.18, 106.03 13.35, 114.5 2.81 M75.79 47.34 C91.38 29.77, 105.75 12.49, 114.5 2.81 M81.44 46.94 C91.02 37.42, 98.02 26.8, 120.14 2.41 M81.44 46.94 C93.39 33.15, 105.07 20.83, 120.14 2.41 M86.42 47.3 C96.67 36.3, 104.19 23.75, 125.13 2.77 M86.42 47.3 C94.68 37.48, 103.96 29.02, 125.13 2.77 M92.07 46.91 C105.14 32.37, 119.44 17.77, 130.12 3.13 M92.07 46.91 C102.82 34.34, 113.24 21.66, 130.12 3.13 M97.05 47.27 C106.56 34.96, 118.7 23.97, 135.76 2.74 M97.05 47.27 C106.7 37.92, 114.53 27.64, 135.76 2.74 M102.04 47.63 C114.86 29.95, 129.15 17.2, 140.75 3.1 M102.04 47.63 C112.66 34.52, 124.08 21.7, 140.75 3.1 M107.68 47.23 C117.07 34.45, 127.37 22.24, 146.39 2.71 M107.68 47.23 C120.21 33.17, 131.15 21.17, 146.39 2.71 M112.67 47.59 C123.52 35.98, 134.56 24.44, 151.38 3.07 M112.67 47.59 C125.9 32.92, 136.82 19.11, 151.38 3.07 M118.31 47.2 C130.05 33.66, 144.04 18.98, 157.02 2.67 M118.31 47.2 C133.09 29.98, 149.65 11.97, 157.02 2.67 M123.3 47.56 C137.51 33.97, 148.26 17.29, 162.01 3.03 M123.3 47.56 C131.52 36.98, 140.69 26.97, 162.01 3.03 M128.94 47.16 C142.77 31.54, 157.76 15.39, 168.31 1.88 M128.94 47.16 C143.23 31.77, 155.26 16.15, 168.31 1.88 M133.93 47.52 C147.2 30.96, 163.96 14.06, 171.33 4.51 M133.93 47.52 C143.41 36.32, 151.87 26.37, 171.33 4.51 M139.57 47.13 C152.47 35.41, 162.44 20.4, 173.69 7.88 M139.57 47.13 C153.33 31.45, 165.85 17.47, 173.69 7.88 M144.56 47.49 C151.48 36.8, 161.48 26.48, 176.05 11.26 M144.56 47.49 C153.07 37.71, 162.95 26.93, 176.05 11.26 M149.55 47.85 C160.56 38.24, 166.91 28.75, 175.79 17.66 M149.55 47.85 C157.59 38.68, 165.22 28.16, 175.79 17.66 M155.19 47.46 C160.52 39.92, 164.66 33.49, 175.53 24.06 M155.19 47.46 C162.9 37.43, 171.2 29.15, 175.53 24.06 M160.18 47.82 C162.5 45.49, 166.67 39.97, 175.27 30.46 M160.18 47.82 C163.44 43.44, 168.1 39.03, 175.27 30.46 M163.85 49.68 C167.17 48.03, 169.78 45.41, 175.66 36.1 M163.85 49.68 C167.52 45.86, 171.42 40.82, 175.66 36.1" stroke="#fab005" stroke-width="0.5" fill="none"></path><path d="M11.75 0 M11.75 0 C44.69 -0.18, 80.69 0.04, 161.25 0 M11.75 0 C68.48 -0.23, 124.83 -0.46, 161.25 0 M161.25 0 C168.23 1.13, 174.09 4.55, 173 11.75 M161.25 0 C169.43 -1.43, 171.43 4.26, 173 11.75 M173 11.75 C173.66 21.14, 172.22 30.53, 173 35.25 M173 11.75 C172.6 21.19, 173.99 29.88, 173 35.25 M173 35.25 C174.6 44.94, 168.48 46.64, 161.25 47 M173 35.25 C173.31 43.55, 167.66 48.03, 161.25 47 M161.25 47 C126.65 49.12, 95.36 48.44, 11.75 47 M161.25 47 C104.74 45.38, 49.14 45.12, 11.75 47 M11.75 47 C2.64 47.84, -0.73 44.02, 0 35.25 M11.75 47 C3.73 48.68, -1.44 44.27, 0 35.25 M0 35.25 C-0.46 29.87, -1.77 22.63, 0 11.75 M0 35.25 C0.63 28.72, 0.2 20.88, 0 11.75 M0 11.75 C1.03 4.77, 4.26 -0.42, 11.75 0 M0 11.75 C-0.62 4.56, 5.7 0.25, 11.75 0" stroke="#000000" stroke-width="1" fill="none"></path></g><g transform="translate(484.3833351135254 159.05) rotate(0 59.11666488647461 9.200000000000003)"><text x="59.11666488647461" y="0" font-family="Helvetica, Segoe UI Emoji" font-size="16px" fill="#000000" text-anchor="middle" style="white-space: pre;" direction="ltr" dominant-baseline="text-before-edge">调用 mountState</text></g><g stroke-linecap="round" transform="translate(232 144.75) rotate(0 62 23.5)"><path d="M11.75 0 M11.75 0 C37.8 1.05, 59.44 -0.1, 112.25 0 M11.75 0 C47.66 -0.05, 85 -0.1, 112.25 0 M112.25 0 C120.96 -1.12, 124.8 3.07, 124 11.75 M112.25 0 C121.5 -0.11, 125.82 3.91, 124 11.75 M124 11.75 C126.06 20.07, 124.62 26.14, 124 35.25 M124 11.75 C123.21 19.54, 123.71 27.79, 124 35.25 M124 35.25 C125.59 42.45, 118.65 47.61, 112.25 47 M124 35.25 C124.71 45.25, 120.78 45.22, 112.25 47 M112.25 47 C84.02 47.74, 54.24 47.37, 11.75 47 M112.25 47 C89.7 47.76, 67.22 47.42, 11.75 47 M11.75 47 C5.68 46.92, 0.57 44.27, 0 35.25 M11.75 47 C2.29 46.71, 0.07 43.47, 0 35.25 M0 35.25 C0.78 27.74, -1.17 18.28, 0 11.75 M0 35.25 C0.88 26.88, 0.12 20.77, 0 11.75 M0 11.75 C-0.27 3.76, 2.83 -0.5, 11.75 0 M0 11.75 C0.39 5.22, 3.39 2.29, 11.75 0" stroke="#000000" stroke-width="1" fill="none"></path></g><g transform="translate(246 159.05) rotate(0 48 9.200000000000003)"><text x="48" y="0" font-family="Helvetica, Segoe UI Emoji" font-size="16px" fill="#000000" text-anchor="middle" style="white-space: pre;" direction="ltr" dominant-baseline="text-before-edge">返回目标数组</text></g><g stroke-linecap="round"><g transform="translate(135.25531914893622 32.67412442456067) rotate(0 35.94197926602129 0.3426038711033188)"><path d="M0.41 0.88 C12.72 0.85, 60.77 -0.02, 72.71 -0.22 M-0.83 0.3 C11.51 0.4, 60.24 0.85, 72.28 0.9" stroke="#000000" stroke-width="1" fill="none"></path></g><g transform="translate(135.25531914893622 32.67412442456067) rotate(0 35.94197926602129 0.3426038711033188)"><path d="M45.49 12.61 C48.45 9.35, 54.13 7.57, 70.61 2.31 M43.94 10.64 C51 8.66, 57.84 7.03, 73.1 1.5" stroke="#000000" stroke-width="1" fill="none"></path></g><g transform="translate(135.25531914893622 32.67412442456067) rotate(0 35.94197926602129 0.3426038711033188)"><path d="M45.63 -7.91 C48.56 -6.99, 54.21 -4.57, 70.61 2.31 M44.08 -9.88 C50.93 -7.16, 57.73 -4.09, 73.1 1.5" stroke="#000000" stroke-width="1" fill="none"></path></g></g><mask></mask><g stroke-linecap="round"><g transform="translate(398.78723404255334 40.493439492589545) rotate(0 29.10751924388262 0.9072054580557971)"><path d="M-0.77 0.86 C8.62 0.8, 47.09 0.24, 56.9 0.53 M1.02 0.26 C10.71 0.24, 49.62 1.46, 58.99 1.55" stroke="#000000" stroke-width="1" fill="none"></path></g><g transform="translate(398.78723404255334 40.493439492589545) rotate(0 29.10751924388262 0.9072054580557971)"><path d="M32.91 8.92 C39.29 7.76, 52.26 4.55, 58.28 1.14 M31.58 10.01 C40.06 7.18, 48.52 4.62, 58.47 1.48" stroke="#000000" stroke-width="1" fill="none"></path></g><g transform="translate(398.78723404255334 40.493439492589545) rotate(0 29.10751924388262 0.9072054580557971)"><path d="M33.35 -10.94 C39.73 -5.23, 52.54 -1.57, 58.28 1.14 M32.01 -9.86 C40.35 -6.81, 48.67 -3.5, 58.47 1.48" stroke="#000000" stroke-width="1" fill="none"></path></g></g><mask></mask><g stroke-linecap="round"><g transform="translate(454 167.69659423828125) rotate(0 -48.07268419817086 0.24764680825173002)"><path d="M-1.05 0.24 C-17.27 0.31, -80.97 -0.05, -96.75 -0.24 M0.6 -0.68 C-15.29 -0.38, -78.27 1.06, -94.43 1.18" stroke="#000000" stroke-width="1" fill="none"></path></g><g transform="translate(454 167.69659423828125) rotate(0 -48.07268419817086 0.24764680825173002)"><path d="M-66.01 -10.78 C-76.65 -5.6, -87.51 -3.31, -92.44 0.48 M-65.62 -9.01 C-77.01 -6.03, -86.36 -2.65, -94.01 1.68" stroke="#000000" stroke-width="1" fill="none"></path></g><g transform="translate(454 167.69659423828125) rotate(0 -48.07268419817086 0.24764680825173002)"><path d="M-65.68 9.74 C-76.33 7.74, -87.3 2.86, -92.44 0.48 M-65.29 11.5 C-76.9 7.31, -86.36 3.51, -94.01 1.68" stroke="#000000" stroke-width="1" fill="none"></path></g></g><mask></mask><g stroke-linecap="round"><g transform="translate(543.7455272916709 82.07650756835938) rotate(0 -0.04990177098591175 29.7049727871269)"><path d="M0.23 -0.34 C0.41 9.51, 0.86 49.59, 1.01 59.63 M-1.11 -1.57 C-1.05 8.41, -0.03 50.51, 0.26 60.98" stroke="#000000" stroke-width="1" fill="none"></path></g><g transform="translate(543.7455272916709 82.07650756835938) rotate(0 -0.04990177098591175 29.7049727871269)"><path d="M-11.28 33.69 C-7.97 42.07, -4.22 48.48, 1.07 59.58 M-10.25 32.22 C-8.21 37.87, -6.88 43.47, -0.22 60.03" stroke="#000000" stroke-width="1" fill="none"></path></g><g transform="translate(543.7455272916709 82.07650756835938) rotate(0 -0.04990177098591175 29.7049727871269)"><path d="M9.23 33.16 C6.5 41.74, 4.21 48.31, 1.07 59.58 M10.26 31.7 C8.11 37.62, 5.24 43.33, -0.22 60.03" stroke="#000000" stroke-width="1" fill="none"></path></g></g><mask></mask></svg>