<svg version="1.1" xmlns="http://www.w3.org/2000/svg" viewBox="0 0 740 321" width="740" height="321">
  <!-- svg-source:excalidraw -->
  
  <defs>
    <style class="style-fonts">
      @font-face {
        font-family: "Virgil";
        src: url("https://excalidraw.com/Virgil.woff2");
      }
      @font-face {
        font-family: "Cascadia";
        src: url("https://excalidraw.com/Cascadia.woff2");
      }
    </style>
  </defs>
  <g stroke-linecap="round" transform="translate(10 122) rotate(0 101.5 52.5)"><path d="M124.92 0.87 C138.1 1.59, 152.41 5.57, 163.21 9.97 C174.02 14.37, 183.15 20.78, 189.76 27.27 C196.37 33.76, 201.42 41.79, 202.88 48.88 C204.33 55.97, 203.01 63.22, 198.47 69.82 C193.94 76.42, 185.11 83.27, 175.65 88.48 C166.19 93.7, 154.21 98.5, 141.72 101.1 C129.23 103.7, 114.41 104.23, 100.72 104.1 C87.04 103.96, 72.37 103.16, 59.62 100.28 C46.86 97.39, 33.29 92.04, 24.2 86.78 C15.11 81.53, 9.14 75.43, 5.08 68.75 C1.02 62.07, -1.58 53.85, -0.15 46.7 C1.28 39.55, 6.59 32.1, 13.66 25.85 C20.74 19.6, 30.96 13.37, 42.32 9.19 C53.68 5.01, 66.79 1.94, 81.85 0.75 C96.91 -0.44, 122.92 1.46, 132.67 2.05 C142.43 2.64, 140.91 3.27, 140.37 4.3 M118.57 0.12 C131.43 0.28, 145.55 4.51, 156.87 8.39 C168.19 12.28, 179.16 17.25, 186.51 23.43 C193.86 29.61, 198.81 38.38, 200.99 45.48 C203.17 52.59, 203.34 59.42, 199.59 66.05 C195.84 72.68, 187.51 79.72, 178.49 85.27 C169.46 90.81, 157.87 95.89, 145.43 99.32 C132.99 102.74, 117.49 105.7, 103.84 105.8 C90.19 105.91, 76.3 102.83, 63.54 99.94 C50.78 97.06, 36.67 93.41, 27.27 88.49 C17.87 83.57, 11.8 76.78, 7.13 70.42 C2.47 64.06, -1.69 57.45, -0.72 50.33 C0.25 43.2, 6.16 34.4, 12.96 27.67 C19.76 20.93, 29.54 14.24, 40.08 9.9 C50.62 5.55, 63.19 3.29, 76.21 1.61 C89.23 -0.06, 110.99 0.04, 118.18 -0.15 C125.38 -0.35, 119.41 -0.37, 119.39 0.44" stroke="none" stroke-width="0" fill="#a5d8ff"></path><path d="M97.28 -0.25 C110.34 -1.43, 126.57 0.58, 139.11 3.18 C151.64 5.78, 163.07 10.28, 172.51 15.36 C181.95 20.44, 190.71 26.97, 195.72 33.68 C200.74 40.38, 203.14 48.38, 202.59 55.61 C202.04 62.85, 198.62 70.87, 192.43 77.09 C186.24 83.32, 176.25 88.58, 165.44 92.96 C154.63 97.34, 140.99 101.51, 127.55 103.38 C114.11 105.26, 98.49 105.27, 84.79 104.22 C71.09 103.17, 56.9 100.91, 45.37 97.08 C33.84 93.25, 22.85 87.22, 15.61 81.22 C8.38 75.21, 4.01 68, 1.94 61.06 C-0.13 54.12, -0.37 46.5, 3.2 39.58 C6.78 32.65, 14.77 25.02, 23.39 19.5 C32 13.98, 42.28 9.69, 54.9 6.47 C67.51 3.24, 91.17 0.99, 99.09 0.18 C107.01 -0.63, 102.4 0.92, 102.43 1.62 M149.17 6.61 C161.58 8.88, 173.26 13.62, 181.97 19.36 C190.69 25.11, 198.19 34.12, 201.46 41.11 C204.73 48.09, 204.38 54.33, 201.57 61.26 C198.77 68.19, 192.37 76.72, 184.63 82.7 C176.89 88.69, 166.58 93.35, 155.13 97.18 C143.67 101.02, 129.59 104.77, 115.92 105.71 C102.25 106.65, 86.17 104.84, 73.08 102.8 C60 100.76, 47.78 98.28, 37.42 93.47 C27.06 88.67, 17.1 80.5, 10.93 73.96 C4.76 67.42, 0.99 61.18, 0.39 54.22 C-0.21 47.25, 2.33 38.56, 7.35 32.17 C12.37 25.77, 20.29 20.62, 30.5 15.84 C40.72 11.07, 55.55 6.17, 68.66 3.54 C81.77 0.91, 95.66 -0.37, 109.16 0.06 C122.66 0.48, 143.19 4.97, 149.66 6.11 C156.13 7.25, 148.67 6.12, 147.96 6.89" stroke="#1e1e1e" stroke-width="1" fill="none"></path></g><g transform="translate(70.6765796477979 162.37689398770624) rotate(0 41.05208206176758 12)"><text x="41.05208206176758" y="0" font-family="Cascadia, Segoe UI Emoji" font-size="20px" fill="#1e1e1e" text-anchor="middle" style="white-space: pre;" direction="ltr" dominant-baseline="text-before-edge">Subject</text></g><g stroke-linecap="round" transform="translate(419 10) rotate(0 155.5 150.5)"><path d="M32.54 0.4 L279.16 1.72 L292.09 3.84 L303.51 7.4 L307.02 17.95 L309.03 31.53 L309.12 269.33 L310.43 281.29 L302.03 291.77 L293.27 299.09 L278.19 302.26 L32.88 302.5 L17.85 298.96 L6.42 292.28 L3.08 284.23 L0.86 267.37 L2.25 26.12 L3 17.93 L7.55 7.86 L18.41 3.26 L31 0.86" stroke="none" stroke-width="0" fill="#82c91e"></path><path d="M32 0 M32 0 C124.72 0.25, 219.12 -0.31, 279 0 M32 0 C127.36 -0.66, 223.78 0.58, 279 0 M279 0 C301.98 -0.53, 310.53 10.86, 311 32 M279 0 C299.49 0.74, 312.94 9, 311 32 M311 32 C310.39 111.7, 312.62 189.78, 311 269 M311 32 C313.24 114.89, 312.5 198.97, 311 269 M311 269 C310.46 290.62, 301.44 302.22, 279 301 M311 269 C311.89 290.7, 300.49 299.76, 279 301 M279 301 C207.01 300.01, 132.55 299.51, 32 301 M279 301 C192.78 301.78, 108.49 301.77, 32 301 M32 301 C10.11 299.41, 1.98 291.54, 0 269 M32 301 C11.24 302.88, 0.97 289.52, 0 269 M0 269 C-1.02 220.43, -2.25 173.57, 0 32 M0 269 C-1.89 204.2, -2.36 139.49, 0 32 M0 32 C0.33 9.11, 12.65 0.6, 32 0 M0 32 C0.55 12.7, 12.05 -1.79, 32 0" stroke="#000000" stroke-width="1" fill="none"></path></g><g transform="translate(440 30) rotate(0 59.37890625 13.5)"><text x="0" y="0" font-family="Cascadia, Segoe UI Emoji" font-size="22.5px" fill="#1e1e1e" text-anchor="start" style="white-space: pre;" direction="ltr" dominant-baseline="text-before-edge">Observers</text></g><g stroke-linecap="round" transform="translate(494.75 61) rotate(0 76.5 34.5)"><path d="M97.49 1.37 C108.44 2.19, 120.16 5.9, 128.61 9.42 C137.07 12.94, 144.25 17.33, 148.24 22.48 C152.24 27.63, 154.4 34.86, 152.6 40.33 C150.81 45.79, 144.55 50.96, 137.48 55.26 C130.41 59.55, 120.66 63.94, 110.19 66.11 C99.72 68.28, 86.73 68.39, 74.65 68.27 C62.57 68.15, 48.31 67.98, 37.73 65.41 C27.15 62.84, 17.53 57.33, 11.16 52.84 C4.78 48.35, 0.26 43.71, -0.51 38.48 C-1.28 33.24, 1.7 26.44, 6.54 21.42 C11.39 16.4, 19.6 11.94, 28.57 8.33 C37.55 4.72, 47.6 0.87, 60.38 -0.24 C73.16 -1.34, 96.84 1, 105.25 1.69 C113.66 2.38, 111.48 3.24, 110.83 3.93 M66.14 -0.06 C76.77 -1.51, 90.54 -0.25, 101.71 1.43 C112.88 3.11, 124.79 5.91, 133.16 10.03 C141.53 14.14, 148.91 20.56, 151.95 26.14 C155 31.72, 154.17 38.59, 151.43 43.53 C148.69 48.47, 143.16 52.05, 135.5 55.78 C127.84 59.5, 116.4 63.72, 105.47 65.89 C94.55 68.05, 82.02 69.17, 69.95 68.76 C57.89 68.35, 43.17 66.58, 33.07 63.44 C22.98 60.29, 14.93 54.72, 9.37 49.91 C3.82 45.1, 0.15 39.51, -0.24 34.57 C-0.64 29.63, 1.79 25.16, 7 20.28 C12.2 15.39, 21.33 8.64, 31.01 5.24 C40.68 1.85, 59.29 0.62, 65.06 -0.09 C70.83 -0.81, 65.12 0.37, 65.63 0.96" stroke="none" stroke-width="0" fill="#ffffff"></path><path d="M39.87 3.21 C49.27 0.63, 63.97 0.71, 75.71 0.72 C87.46 0.73, 99.92 0.94, 110.35 3.27 C120.79 5.6, 131.3 10.31, 138.3 14.69 C145.3 19.06, 150.59 24.16, 152.37 29.51 C154.15 34.86, 152.94 41.7, 148.99 46.77 C145.04 51.85, 137.57 56.57, 128.69 59.96 C119.81 63.35, 107.36 65.66, 95.71 67.1 C84.05 68.55, 70.19 69.65, 58.75 68.64 C47.32 67.62, 36.15 64.48, 27.1 61.04 C18.06 57.6, 8.81 52.97, 4.5 48.01 C0.19 43.05, -0.15 36.76, 1.26 31.27 C2.67 25.77, 5.57 19.72, 12.97 15.03 C20.37 10.34, 39.03 5.29, 45.64 3.12 C52.25 0.96, 52.05 1.42, 52.64 2.04 M74.15 1.15 C85.3 0.77, 98.9 2.7, 109.41 4.87 C119.91 7.04, 130.26 10.28, 137.19 14.18 C144.11 18.09, 149.12 22.82, 150.95 28.29 C152.79 33.76, 151.7 41.83, 148.2 47 C144.7 52.18, 138.59 55.83, 129.96 59.31 C121.33 62.8, 108.14 66.35, 96.41 67.91 C84.69 69.48, 70.91 70.03, 59.61 68.69 C48.3 67.34, 37.48 63.35, 28.57 59.83 C19.66 56.32, 10.73 52.47, 6.16 47.61 C1.59 42.75, -0.14 35.76, 1.14 30.67 C2.41 25.58, 7.24 21.32, 13.79 17.07 C20.35 12.82, 30.11 7.93, 40.48 5.16 C50.84 2.39, 70.22 1.32, 75.97 0.45 C81.73 -0.42, 75.35 -0.66, 74.99 -0.06" stroke="#1e1e1e" stroke-width="1" fill="none"></path></g><g transform="translate(528.9688312392291 86.00481604906412) rotate(0 42.1875 9.599999999999994)"><text x="42.1875" y="0" font-family="Cascadia, Segoe UI Emoji" font-size="16px" fill="#1e1e1e" text-anchor="middle" style="white-space: pre;" direction="ltr" dominant-baseline="text-before-edge">Observer1</text></g><g stroke-linecap="round" transform="translate(497.25 144.5) rotate(0 76.5 34.5)"><path d="M78.36 -0.88 C89.83 -1.13, 104.45 2.18, 114.79 5 C125.13 7.82, 134 11.55, 140.4 16.05 C146.8 20.55, 151.93 26.84, 153.17 32.01 C154.41 37.18, 152.65 42.09, 147.85 47.09 C143.05 52.08, 133.79 58.51, 124.38 61.99 C114.97 65.47, 102.97 66.86, 91.4 67.98 C79.83 69.09, 66.1 70.06, 54.95 68.7 C43.8 67.33, 32.85 63.57, 24.51 59.8 C16.17 56.03, 8.92 51.34, 4.93 46.08 C0.94 40.82, -1.29 33.7, 0.55 28.23 C2.39 22.77, 8.78 17.51, 15.98 13.31 C23.18 9.11, 31.69 5.15, 43.75 3.05 C55.8 0.94, 79.42 0.68, 88.3 0.67 C97.19 0.67, 97.15 2.47, 97.08 3.01 M66.89 -0.88 C78.27 -1.86, 93.38 0.32, 104.51 2.59 C115.65 4.86, 125.85 9.03, 133.69 12.73 C141.52 16.43, 148.54 19.95, 151.52 24.79 C154.51 29.64, 154.24 36.42, 151.59 41.81 C148.94 47.19, 143.66 52.93, 135.6 57.11 C127.54 61.29, 114.49 65.12, 103.21 66.88 C91.93 68.63, 79.58 68.37, 67.93 67.65 C56.28 66.93, 43.33 65.15, 33.32 62.55 C23.32 59.96, 13.6 56.92, 7.88 52.09 C2.16 47.26, -0.93 39.23, -0.99 33.6 C-1.06 27.97, 2.02 22.87, 7.51 18.31 C12.99 13.74, 21.88 9.27, 31.91 6.22 C41.94 3.17, 61.65 1.06, 67.67 -0.01 C73.69 -1.08, 67.84 -0.85, 68.03 -0.18" stroke="none" stroke-width="0" fill="#ffffff"></path><path d="M41 3.26 C50.39 0.41, 64.9 0.05, 76.9 0.14 C88.9 0.22, 102.37 1.16, 112.99 3.76 C123.62 6.36, 133.94 11.23, 140.66 15.72 C147.38 20.21, 152.14 25.61, 153.31 30.72 C154.47 35.83, 152.18 41.3, 147.64 46.37 C143.11 51.44, 134.97 57.47, 126.1 61.16 C117.24 64.86, 106.06 67.27, 94.44 68.54 C82.82 69.8, 67.83 70.1, 56.39 68.76 C44.96 67.42, 34.46 64.3, 25.83 60.52 C17.19 56.74, 8.78 51.15, 4.58 46.08 C0.38 41.01, -1.08 35.44, 0.62 30.09 C2.31 24.75, 7.21 18.42, 14.76 14.03 C22.3 9.63, 40.07 5.63, 45.89 3.73 C51.7 1.83, 49.22 2.26, 49.64 2.62 M103.81 2.49 C114.62 3.49, 125.65 6.69, 133.44 10.94 C141.24 15.19, 147.53 22.64, 150.57 27.97 C153.61 33.31, 154.69 37.96, 151.67 42.96 C148.66 47.96, 140.8 53.9, 132.49 57.98 C124.18 62.07, 112.67 65.86, 101.78 67.46 C90.9 69.06, 78.75 68.4, 67.18 67.58 C55.61 66.77, 42.07 65.6, 32.37 62.57 C22.66 59.53, 14.09 53.95, 8.93 49.4 C3.77 44.85, 1.09 40.41, 1.39 35.29 C1.69 30.17, 5 23.54, 10.71 18.69 C16.43 13.85, 25.94 9.41, 35.67 6.2 C45.41 2.99, 57.72 -0.05, 69.12 -0.58 C80.52 -1.11, 98.26 2.4, 104.06 3.05 C109.86 3.7, 104.13 2.73, 103.94 3.32" stroke="#1e1e1e" stroke-width="1" fill="none"></path></g><g transform="translate(531.4688312392291 169.50481604906412) rotate(0 42.1875 9.599999999999994)"><text x="42.1875" y="0" font-family="Cascadia, Segoe UI Emoji" font-size="16px" fill="#1e1e1e" text-anchor="middle" style="white-space: pre;" direction="ltr" dominant-baseline="text-before-edge">Observer2</text></g><g stroke-linecap="round" transform="translate(501.25 225.5) rotate(0 76.5 34.5)"><path d="M42.93 3.6 C52.58 0.95, 67.65 0.51, 79.7 0.55 C91.74 0.59, 105.15 1.12, 115.21 3.83 C125.26 6.55, 133.95 12.28, 140.04 16.86 C146.14 21.43, 150.75 25.95, 151.78 31.29 C152.81 36.63, 150.56 43.85, 146.22 48.87 C141.88 53.88, 134.63 58.07, 125.76 61.37 C116.88 64.68, 104.72 67.8, 92.96 68.69 C81.2 69.58, 66.57 68.35, 55.2 66.7 C43.83 65.06, 33.16 62.41, 24.73 58.83 C16.29 55.24, 8.59 50.09, 4.59 45.18 C0.59 40.28, -0.97 34.42, 0.74 29.37 C2.45 24.32, 7.1 19.31, 14.86 14.88 C22.61 10.46, 41.36 4.9, 47.28 2.81 C53.19 0.71, 50.03 1.74, 50.36 2.29 M47.77 3.92 C57.65 1.25, 72.68 -1.18, 84.53 -1.02 C96.38 -0.85, 108.85 1.81, 118.87 4.91 C128.88 8.01, 139.13 12.77, 144.64 17.58 C150.16 22.39, 151.86 28.61, 151.95 33.77 C152.04 38.93, 150.29 43.88, 145.2 48.56 C140.11 53.23, 131.18 58.28, 121.42 61.84 C111.66 65.4, 98.47 69.25, 86.63 69.92 C74.78 70.6, 61.51 67.93, 50.36 65.89 C39.2 63.85, 27.74 61.37, 19.7 57.66 C11.67 53.95, 4.98 48.75, 2.16 43.62 C-0.67 38.49, -0.04 32.28, 2.78 26.87 C5.6 21.47, 11.42 15.19, 19.06 11.19 C26.7 7.19, 43.93 4.11, 48.63 2.88 C53.33 1.65, 46.78 3.56, 47.26 3.81" stroke="none" stroke-width="0" fill="#ffffff"></path><path d="M58.18 0.6 C69.05 -1.06, 83.75 0.11, 95.38 1.44 C107.01 2.77, 119.17 5.25, 127.94 8.58 C136.7 11.92, 143.96 16.35, 147.99 21.45 C152.01 26.55, 153.4 33.66, 152.09 39.17 C150.77 44.68, 146.91 50.05, 140.11 54.51 C133.31 58.96, 121.74 63.41, 111.29 65.91 C100.83 68.41, 89.09 69.68, 77.37 69.5 C65.65 69.32, 51.61 67.37, 40.96 64.84 C30.32 62.31, 20.13 58.77, 13.5 54.33 C6.88 49.88, 2.55 43.39, 1.2 38.18 C-0.16 32.97, 1.3 28.02, 5.38 23.05 C9.46 18.09, 16.42 12.15, 25.68 8.39 C34.93 4.63, 54.34 1.79, 60.89 0.49 C67.43 -0.81, 64.51 0.11, 64.94 0.59 M76.6 1.13 C88.28 0.79, 103.36 1.33, 113.84 3.68 C124.32 6.04, 133.11 10.71, 139.46 15.28 C145.82 19.85, 150.36 26, 151.96 31.11 C153.56 36.21, 153.2 41.01, 149.07 45.91 C144.95 50.82, 136.22 56.94, 127.21 60.54 C118.19 64.13, 106.37 66.02, 94.99 67.48 C83.62 68.95, 70.36 70.44, 58.96 69.34 C47.57 68.24, 35.39 64.65, 26.61 60.91 C17.82 57.17, 10.49 52.18, 6.24 46.91 C1.99 41.64, -0.03 34.58, 1.11 29.3 C2.24 24.02, 6.39 19.46, 13.05 15.25 C19.72 11.04, 30.29 6.42, 41.1 4.03 C51.92 1.65, 71.85 1.44, 77.95 0.92 C84.05 0.4, 77.82 0.64, 77.69 0.93" stroke="#1e1e1e" stroke-width="1" fill="none"></path></g><g transform="translate(535.4688312392291 250.50481604906406) rotate(0 42.1875 9.599999999999994)"><text x="42.1875" y="0" font-family="Cascadia, Segoe UI Emoji" font-size="16px" fill="#1e1e1e" text-anchor="middle" style="white-space: pre;" direction="ltr" dominant-baseline="text-before-edge">Observer3</text></g><g mask="url(#mask-LIdwtNcc1VAmpFoOdmTce)" stroke-linecap="round"><g transform="translate(225.50889473238226 156.75514436504392) rotate(0 130.06452807518912 -30.495982934085646)"><path d="M-0.98 -0.5 C42.23 -10.53, 215.16 -50.49, 258.74 -60.49 M0.71 -1.81 C44.35 -11.66, 217.83 -49.63, 261.11 -59.25" stroke="#1e1e1e" stroke-width="1" fill="none"></path></g><g transform="translate(225.50889473238226 156.75514436504392) rotate(0 130.06452807518912 -30.495982934085646)"><path d="M234.95 -44.26 C241.49 -45.24, 248.02 -51.17, 259.91 -57.56 M236.16 -42.21 C243.74 -48.84, 251.68 -54.14, 261.36 -59.13" stroke="#1e1e1e" stroke-width="1" fill="none"></path></g><g transform="translate(225.50889473238226 156.75514436504392) rotate(0 130.06452807518912 -30.495982934085646)"><path d="M230.54 -64.3 C238.18 -60.03, 245.86 -60.74, 259.91 -57.56 M231.74 -62.25 C240.93 -62.2, 250.35 -60.82, 261.36 -59.13" stroke="#1e1e1e" stroke-width="1" fill="none"></path></g></g><mask id="mask-LIdwtNcc1VAmpFoOdmTce"><rect x="0" y="0" fill="#fff" width="584.914828158885" height="316.69665088256966"></rect><rect x="317.71186144563353" y="117.18439110628105" fill="#000" width="75" height="19.2" opacity="1"></rect></mask><g transform="translate(317.71186144563353 117.18439110628103) rotate(0 37.861561361937845 9.074770324677218)"><text x="37.5" y="0" font-family="Cascadia, Segoe UI Emoji" font-size="16px" fill="#1e1e1e" text-anchor="middle" style="white-space: pre;" direction="ltr" dominant-baseline="text-before-edge">notify()</text></g><g mask="url(#mask-ZH9gE_BhlvrYBm83NnKeH)" stroke-linecap="round"><g transform="translate(231.38757916533723 175.06160779707008) rotate(0 125.53682199150325 2.0842481291518737)"><path d="M-1.06 -0.87 C40.9 -0.11, 210.03 3.03, 252.14 3.9 M0.58 1.29 C42.32 2.24, 208.74 4.33, 250.97 5.03" stroke="#1e1e1e" stroke-width="1" fill="none"></path></g><g transform="translate(231.38757916533723 175.06160779707008) rotate(0 125.53682199150325 2.0842481291518737)"><path d="M221.2 14.2 C230.68 10.33, 240.69 6.98, 251.33 6.47 M222.72 14.26 C229.57 11.4, 236.22 9.85, 250.12 4.36" stroke="#1e1e1e" stroke-width="1" fill="none"></path></g><g transform="translate(231.38757916533723 175.06160779707008) rotate(0 125.53682199150325 2.0842481291518737)"><path d="M221.49 -6.32 C230.77 -3.48, 240.68 -0.12, 251.33 6.47 M223.02 -6.26 C229.97 -4.12, 236.55 -0.65, 250.12 4.36" stroke="#1e1e1e" stroke-width="1" fill="none"></path></g></g><mask id="mask-ZH9gE_BhlvrYBm83NnKeH"><rect x="0" y="0" fill="#fff" width="583.9373730038978" height="279.72348567396114"></rect><rect x="320.16247608461754" y="167.79254673551557" fill="#000" width="75" height="19.2" opacity="1"></rect></mask><g transform="translate(320.16247608461754 167.79254673551563) rotate(0 36.76192507222294 9.353309190706355)"><text x="37.5" y="0" font-family="Cascadia, Segoe UI Emoji" font-size="16px" fill="#1e1e1e" text-anchor="middle" style="white-space: pre;" direction="ltr" dominant-baseline="text-before-edge">notify()</text></g><g mask="url(#mask-moy8arnfusqaf6EPOL-2V)" stroke-linecap="round"><g transform="translate(227.04888729789582 187.125218002454) rotate(0 134.59955819936357 38.936913031796934)"><path d="M1.06 0.21 C45.96 13.41, 224.45 65.8, 269.04 78.59 M0.16 -0.72 C44.95 12.17, 223.58 63.68, 268.17 76.77" stroke="#1e1e1e" stroke-width="1" fill="none"></path></g><g transform="translate(227.04888729789582 187.125218002454) rotate(0 134.59955819936357 38.936913031796934)"><path d="M238.59 78.99 C247.24 77.49, 252.66 78.37, 268.87 77.48 M238.73 78.16 C246.49 77.32, 252.23 78.1, 267.29 76.48" stroke="#1e1e1e" stroke-width="1" fill="none"></path></g><g transform="translate(227.04888729789582 187.125218002454) rotate(0 134.59955819936357 38.936913031796934)"><path d="M244.31 59.29 C251.33 63.15, 255.21 69.34, 268.87 77.48 M244.46 58.46 C250.85 62.44, 255.2 68.02, 267.29 76.48" stroke="#1e1e1e" stroke-width="1" fill="none"></path></g></g><mask id="mask-moy8arnfusqaf6EPOL-2V"><rect x="0" y="0" fill="#fff" width="595.9466310442804" height="365.15974283915443"></rect><rect x="323.9977591710881" y="216.54248042080417" fill="#000" width="75" height="19.2" opacity="1"></rect></mask><g transform="translate(323.9977591710881 216.54248042080417) rotate(0 37.6506863261713 9.519650613446771)"><text x="37.5" y="0" font-family="Cascadia, Segoe UI Emoji" font-size="16px" fill="#1e1e1e" text-anchor="middle" style="white-space: pre;" direction="ltr" dominant-baseline="text-before-edge">notify()</text></g></svg>