<svg version="1.1" xmlns="http://www.w3.org/2000/svg" viewBox="0 0 846 83" width="846" height="83">
  <!-- svg-source:excalidraw -->
  
  <defs>
    <style class="style-fonts">
      @font-face {
        font-family: "Virgil";
        src: url("https://excalidraw.com/Virgil.woff2");
      }
      @font-face {
        font-family: "Cascadia";
        src: url("https://excalidraw.com/Cascadia.woff2");
      }
    </style>
  </defs>
  <g stroke-linecap="round" transform="translate(10 10) rotate(0 53.5 31.5)"><path d="M56.33 0.62 C65.75 0.53, 77.8 2.82, 85.71 6.03 C93.63 9.24, 100.56 14.64, 103.81 19.9 C107.06 25.17, 107.18 32.04, 105.2 37.63 C103.23 43.23, 98.49 49.38, 91.95 53.46 C85.41 57.55, 75.33 60.99, 65.95 62.14 C56.56 63.29, 44.71 62.13, 35.64 60.37 C26.57 58.61, 17.59 56.03, 11.52 51.59 C5.45 47.15, -0.06 39.66, -0.8 33.73 C-1.54 27.81, 2.39 21.11, 7.09 16.04 C11.79 10.97, 18.35 5.93, 27.41 3.29 C36.47 0.65, 55.12 0.39, 61.47 0.18 C67.83 -0.03, 65.72 1.53, 65.54 2.01 M56.05 0.39 C65.21 0.24, 77.2 2.92, 85.14 6.15 C93.07 9.38, 100.01 14.56, 103.65 19.75 C107.28 24.94, 108.79 31.52, 106.97 37.29 C105.15 43.05, 99.91 50.23, 92.72 54.36 C85.53 58.49, 73.31 61, 63.83 62.07 C54.35 63.14, 44.79 62.93, 35.84 60.78 C26.9 58.63, 16 53.75, 10.15 49.16 C4.29 44.58, 1.16 38.69, 0.71 33.27 C0.26 27.85, 3.08 21.38, 7.46 16.65 C11.84 11.92, 18.9 7.49, 27.01 4.89 C35.12 2.29, 51.25 1.51, 56.12 1.04 C60.99 0.56, 56.04 1.75, 56.24 2.04" stroke="#000000" stroke-width="1" fill="none"></path></g><g stroke-linecap="round" transform="translate(510 10) rotate(0 60.5 31.5)"><path d="M61.37 0.64 C71 0.11, 81.83 1.68, 90.5 4.24 C99.18 6.8, 108.35 11.6, 113.44 16 C118.53 20.4, 121.25 25.3, 121.05 30.65 C120.84 36, 117.34 43.43, 112.21 48.1 C107.08 52.78, 98.92 56.3, 90.27 58.7 C81.63 61.1, 70.47 62.59, 60.36 62.5 C50.26 62.41, 38.19 60.68, 29.63 58.18 C21.07 55.68, 13.79 52.02, 8.98 47.51 C4.17 43, 0.74 36.4, 0.76 31.13 C0.77 25.86, 4.01 20.44, 9.05 15.88 C14.09 11.32, 21.63 6.24, 30.98 3.77 C40.33 1.3, 58.85 1.38, 65.14 1.06 C71.44 0.74, 68.78 1.56, 68.74 1.84 M37.45 3.34 C45.92 1.04, 59.35 -0.13, 69.38 0.51 C79.41 1.16, 89.66 4.14, 97.62 7.18 C105.58 10.22, 113.4 14.1, 117.13 18.75 C120.86 23.4, 121.36 29.5, 120 35.06 C118.65 40.63, 115.16 47.96, 109.01 52.13 C102.85 56.3, 92.64 58.42, 83.07 60.09 C73.49 61.76, 61.45 62.65, 51.53 62.14 C41.61 61.62, 31.63 60.37, 23.57 56.99 C15.5 53.62, 6.71 46.91, 3.12 41.89 C-0.47 36.87, 0.57 31.74, 2.03 26.88 C3.49 22.03, 6.06 16.96, 11.87 12.76 C17.68 8.56, 32.63 3.57, 36.88 1.67 C41.14 -0.24, 36.96 0.93, 37.39 1.35" stroke="#000000" stroke-width="1" fill="none"></path></g><g stroke-linecap="round" transform="translate(715 10) rotate(0 60.5 31.5)"><path d="M44.03 0.63 C53.03 -1.1, 65.27 -0.48, 75.12 0.99 C84.96 2.45, 95.81 5.83, 103.12 9.44 C110.43 13.04, 116.23 17.68, 118.99 22.62 C121.74 27.57, 122.27 33.83, 119.67 39.08 C117.06 44.34, 110.69 50.49, 103.35 54.13 C96.01 57.77, 85.43 59.72, 75.61 60.92 C65.79 62.12, 53.97 62.4, 44.42 61.31 C34.88 60.21, 25.35 57.87, 18.34 54.35 C11.33 50.82, 5.07 45.35, 2.38 40.16 C-0.32 34.97, -0.27 28.37, 2.17 23.22 C4.6 18.06, 8.68 12.93, 16.97 9.23 C25.26 5.52, 44.48 2.34, 51.93 0.97 C59.38 -0.39, 61.55 0.73, 61.68 1.04 M76.42 1.91 C85.92 2.42, 97.12 4.87, 104.31 8.27 C111.51 11.66, 117.33 17.19, 119.59 22.28 C121.86 27.38, 120.44 33.58, 117.9 38.83 C115.36 44.09, 111.45 49.87, 104.34 53.81 C97.24 57.75, 85.33 61.33, 75.27 62.48 C65.21 63.62, 53.6 61.99, 43.98 60.67 C34.36 59.35, 24.31 58.03, 17.56 54.55 C10.81 51.08, 6.16 45.2, 3.47 39.83 C0.77 34.45, -0.86 27.6, 1.38 22.3 C3.62 17.01, 9.4 11.36, 16.9 8.07 C24.4 4.77, 36.23 3.78, 46.4 2.52 C56.58 1.27, 73.23 0.55, 77.94 0.54 C82.66 0.54, 75.08 2.06, 74.7 2.48" stroke="#000000" stroke-width="1" fill="none"></path></g><g transform="translate(752 28.5) rotate(0 23.5 13)"><text x="23.5" y="18" font-family="Virgil, Segoe UI Emoji" font-size="20px" fill="#000000" text-anchor="middle" style="white-space: pre;" direction="ltr">DOM</text></g><g stroke-linecap="round" transform="translate(212 10.5) rotate(0 107 31)"><path d="M109.23 -0.1 C123.09 -0.36, 139.5 1.45, 152.61 3.21 C165.71 4.97, 178.42 7.39, 187.85 10.44 C197.28 13.49, 204.91 17.57, 209.17 21.5 C213.44 25.43, 215.18 29.65, 213.44 34.03 C211.7 38.41, 206.25 43.92, 198.73 47.8 C191.2 51.67, 180.07 54.89, 168.28 57.27 C156.49 59.65, 142.14 61.38, 127.96 62.06 C113.78 62.75, 97.59 62.34, 83.22 61.37 C68.85 60.4, 53.28 58.85, 41.74 56.22 C30.2 53.59, 20.96 49.24, 13.98 45.61 C7.01 41.98, 1.24 38.48, -0.13 34.45 C-1.5 30.42, 1.08 25.38, 5.76 21.42 C10.44 17.47, 18.13 13.99, 27.96 10.71 C37.8 7.43, 49.66 3.67, 64.77 1.76 C79.89 -0.16, 108.05 -0.53, 118.67 -0.77 C129.29 -1, 128.68 -0.41, 128.49 0.35 M55.93 3.56 C67.2 1.32, 84.23 -0.41, 99.06 -0.93 C113.89 -1.45, 131.32 -1.37, 144.91 0.42 C158.51 2.21, 170.2 6.68, 180.63 9.81 C191.06 12.93, 201.72 15.6, 207.47 19.18 C213.22 22.75, 215.77 27.01, 215.13 31.26 C214.5 35.52, 210.37 40.88, 203.67 44.72 C196.97 48.55, 186.31 51.73, 174.94 54.27 C163.57 56.81, 149.14 58.81, 135.43 59.97 C121.72 61.13, 106.7 61.74, 92.66 61.24 C78.62 60.73, 63.72 59.1, 51.18 56.91 C38.63 54.71, 25.67 51.26, 17.4 48.06 C9.14 44.85, 4.16 41.64, 1.61 37.67 C-0.94 33.69, -1.45 28.3, 2.11 24.18 C5.67 20.06, 13.95 16.37, 22.98 12.96 C32 9.55, 50.26 5.37, 56.26 3.72 C62.27 2.06, 58.3 2.83, 59 3.05" stroke="#000000" stroke-width="1" fill="none"></path></g><g transform="translate(22.5 28.5) rotate(0 41 13)"><text x="41" y="18" font-family="Virgil, Segoe UI Emoji" font-size="20px" fill="#000000" text-anchor="middle" style="white-space: pre;" direction="ltr">开发人员</text></g><g transform="translate(518.5 28.5) rotate(0 52 13)"><text x="52" y="18" font-family="Virgil, Segoe UI Emoji" font-size="20px" fill="#000000" text-anchor="middle" style="white-space: pre;" direction="ltr">Fiber Tree</text></g><g transform="translate(228 28.5) rotate(0 91 13)"><text x="91" y="18" font-family="Virgil, Segoe UI Emoji" font-size="20px" fill="#000000" text-anchor="middle" style="white-space: pre;" direction="ltr">JSX/ReactElement</text></g><g stroke-linecap="round"><g transform="translate(129.00339031949989 41.54801344251996) rotate(0 37.89565286937369 -0.048013442519959426)"><path d="M0.57 0.54 C13.29 0.63, 63.79 -0.61, 76.39 -0.64 M-0.6 -0.22 C11.99 0.07, 62.9 0.01, 75.57 0.31" stroke="#000000" stroke-width="1" fill="none"></path></g><g transform="translate(129.00339031949989 41.54801344251996) rotate(0 37.89565286937369 -0.048013442519959426)"><path d="M48.18 10.72 C54.08 7.21, 64.3 4.44, 77.52 1.05 M48.01 10.36 C52.73 7.96, 58.78 6.56, 75.59 0.03" stroke="#000000" stroke-width="1" fill="none"></path></g><g transform="translate(129.00339031949989 41.54801344251996) rotate(0 37.89565286937369 -0.048013442519959426)"><path d="M48.39 -9.8 C54.02 -7.11, 64.18 -3.68, 77.52 1.05 M48.22 -10.16 C52.92 -8.14, 58.92 -5.12, 75.59 0.03" stroke="#000000" stroke-width="1" fill="none"></path></g></g><g stroke-linecap="round"><g transform="translate(428.96364260880387 41.561188819898234) rotate(0 35.14249700399989 -0.061188819898234215)"><path d="M0.43 0.45 C12.18 0.55, 59.35 -0.73, 71.09 -0.56 M-0.81 -0.36 C10.74 -0.04, 58.33 0.41, 70.12 0.41" stroke="#000000" stroke-width="1" fill="none"></path></g><g transform="translate(428.96364260880387 41.561188819898234) rotate(0 35.14249700399989 -0.061188819898234215)"><path d="M42.62 10.43 C49.95 6.46, 63.13 2.51, 70.94 0.71 M42.19 10.45 C51.25 7.97, 59.42 4.03, 70.13 -0.26" stroke="#000000" stroke-width="1" fill="none"></path></g><g transform="translate(428.96364260880387 41.561188819898234) rotate(0 35.14249700399989 -0.061188819898234215)"><path d="M42.74 -10.09 C49.82 -6.97, 62.96 -3.83, 70.94 0.71 M42.32 -10.07 C51.23 -5.9, 59.36 -3.18, 70.13 -0.26" stroke="#000000" stroke-width="1" fill="none"></path></g></g><g stroke-linecap="round"><g transform="translate(635.9636426088039 41.46883238676361) rotate(0 35.750518643920714 0.03116761323639139)"><path d="M0.88 0.65 C12.96 0.99, 59.94 0.98, 71.62 1 M-0.12 -0.06 C11.92 0.02, 59.21 -1.25, 70.92 -0.87" stroke="#000000" stroke-width="1" fill="none"></path></g><g transform="translate(635.9636426088039 41.46883238676361) rotate(0 35.750518643920714 0.03116761323639139)"><path d="M43.82 10.22 C50.06 6.61, 56.11 5.6, 71.21 -1.39 M42.25 10.21 C52.94 6.5, 63.42 2.47, 70.52 -1.07" stroke="#000000" stroke-width="1" fill="none"></path></g><g transform="translate(635.9636426088039 41.46883238676361) rotate(0 35.750518643920714 0.03116761323639139)"><path d="M43.8 -10.3 C49.86 -9.24, 55.92 -5.58, 71.21 -1.39 M42.23 -10.31 C53.1 -6.2, 63.6 -2.39, 70.52 -1.07" stroke="#000000" stroke-width="1" fill="none"></path></g></g><g transform="translate(136 12) rotate(0 21 13.5)"><text x="21" y="19" font-family="Virgil, Segoe UI Emoji" font-size="20px" fill="#000000" text-anchor="middle" style="white-space: pre;" direction="ltr">操作</text></g><g transform="translate(430 12) rotate(0 21 13.5)"><text x="21" y="19" font-family="Virgil, Segoe UI Emoji" font-size="20px" fill="#000000" text-anchor="middle" style="white-space: pre;" direction="ltr">生成</text></g><g transform="translate(641 12) rotate(0 21 13.5)"><text x="21" y="19" font-family="Virgil, Segoe UI Emoji" font-size="20px" fill="#000000" text-anchor="middle" style="white-space: pre;" direction="ltr">生成</text></g></svg>