<svg version="1.1" xmlns="http://www.w3.org/2000/svg" viewBox="0 0 859.9999999999998 84" width="859.9999999999998" height="84">
  <!-- svg-source:excalidraw -->
  
  <defs>
    <style class="style-fonts">
      @font-face {
        font-family: "Virgil";
        src: url("https://excalidraw.com/Virgil.woff2");
      }
      @font-face {
        font-family: "Cascadia";
        src: url("https://excalidraw.com/Cascadia.woff2");
      }
    </style>
  </defs>
  <g stroke-linecap="round" transform="translate(10 12) rotate(0 75.5 30.5)"><path d="M15.25 0 M15.25 0 C55.25 1.19, 93.98 1.23, 135.75 0 M15.25 0 C47.72 0.37, 78.89 0.64, 135.75 0 M135.75 0 C145.14 1.43, 150.54 5.89, 151 15.25 M135.75 0 C144.04 -2, 152.02 4.68, 151 15.25 M151 15.25 C149.39 21.28, 149.36 28.2, 151 45.75 M151 15.25 C150.22 24.28, 151.19 32.64, 151 45.75 M151 45.75 C150.01 56.91, 147.65 59.21, 135.75 61 M151 45.75 C150.93 54.61, 145.48 62.17, 135.75 61 M135.75 61 C105.22 62.66, 72.42 58.86, 15.25 61 M135.75 61 C92.22 61.01, 50.36 61.57, 15.25 61 M15.25 61 C5.99 60, -0.57 57.33, 0 45.75 M15.25 61 C6.65 61.83, -0.58 57.22, 0 45.75 M0 45.75 C-0.88 34.62, -0.11 25.52, 0 15.25 M0 45.75 C0.2 35.66, -0.47 27.13, 0 15.25 M0 15.25 C-0.05 7.06, 3.09 -0.33, 15.25 0 M0 15.25 C0.37 7.08, 5.65 0.68, 15.25 0" stroke="#000000" stroke-width="1" fill="none"></path></g><g stroke-linecap="round" transform="translate(307.2154071995942 11) rotate(0 102 31.5)"><path d="M15.75 0 M15.75 0 C70.94 -0.65, 124.77 -3.08, 188.25 0 M15.75 0 C68.79 -0.09, 119.93 1, 188.25 0 M188.25 0 C200.25 1.45, 205.57 6.02, 204 15.75 M188.25 0 C201.04 2.11, 205.1 6.95, 204 15.75 M204 15.75 C204.99 23.03, 205.18 32.57, 204 47.25 M204 15.75 C204.43 26.9, 203.58 38.21, 204 47.25 M204 47.25 C205 58.29, 197.5 61.91, 188.25 63 M204 47.25 C204.96 59.36, 196.73 64.18, 188.25 63 M188.25 63 C149.11 61.06, 112.21 60.35, 15.75 63 M188.25 63 C139.02 63.49, 90.92 63.58, 15.75 63 M15.75 63 C4.94 61.47, 1.54 56.02, 0 47.25 M15.75 63 C3.68 63.71, 0.88 58.59, 0 47.25 M0 47.25 C0.25 37.5, 0.68 26.81, 0 15.75 M0 47.25 C-0.44 35.14, -0.16 24.94, 0 15.75 M0 15.75 C-0.36 4.03, 3.54 1.08, 15.75 0 M0 15.75 C0.06 3.42, 4.68 -2.09, 15.75 0" stroke="#000000" stroke-width="1" fill="none"></path></g><g stroke-linecap="round" transform="translate(665.9999999999998 10) rotate(0 92 31.5)"><path d="M15.75 0 M15.75 0 C66.88 -1.15, 118.79 1.19, 168.25 0 M15.75 0 C50.6 -0.76, 82.96 -0.28, 168.25 0 M168.25 0 C178.77 1.65, 184.87 4.7, 184 15.75 M168.25 0 C180.89 -0.99, 184.32 5.78, 184 15.75 M184 15.75 C183.67 26.68, 183.89 35.81, 184 47.25 M184 15.75 C184.69 21.81, 183.48 28.88, 184 47.25 M184 47.25 C183.49 56.86, 178.2 62.85, 168.25 63 M184 47.25 C186.18 58.3, 179.82 64.05, 168.25 63 M168.25 63 C128.92 65.4, 88.89 62.69, 15.75 63 M168.25 63 C131.94 64.56, 94.64 62.62, 15.75 63 M15.75 63 C5.7 64.54, 0.06 57.22, 0 47.25 M15.75 63 C4.6 62.24, -0.57 56.91, 0 47.25 M0 47.25 C0.22 40.07, 0.58 30.04, 0 15.75 M0 47.25 C0.5 39.25, 0.28 30.12, 0 15.75 M0 15.75 C0.35 4.36, 3.69 -0.84, 15.75 0 M0 15.75 C-1.69 6.72, 3.36 -0.28, 15.75 0" stroke="#000000" stroke-width="1" fill="none"></path></g><g transform="translate(26 29.5) rotate(0 59.5 13)"><text x="59.5" y="18" font-family="Virgil, Segoe UI Emoji" font-size="20px" fill="#000000" text-anchor="middle" style="white-space: pre;" direction="ltr">LanePriority</text></g><g transform="translate(318.2154071995943 29.5) rotate(0 90.99999999999994 13)"><text x="91" y="18" font-family="Virgil, Segoe UI Emoji" font-size="20px" fill="#000000" text-anchor="middle" style="white-space: pre;" direction="ltr">ReactPriorityLevel</text></g><g transform="translate(675.9999999999998 28.5) rotate(0 82 13)"><text x="82" y="18" font-family="Virgil, Segoe UI Emoji" font-size="20px" fill="#000000" text-anchor="middle" style="white-space: pre;" direction="ltr">SchedulerPriority</text></g><g stroke-linecap="round"><g transform="translate(171.5438962433068 41.65193359763276) rotate(0 62.563807356490315 0.8480664023672091)"><path d="M0.57 -0.45 C21.43 0.08, 104.72 1.53, 125.72 2 M-0.6 -1.73 C20.07 -0.92, 103.68 2.5, 124.84 3.43" stroke="#000000" stroke-width="1" fill="none"></path></g><g transform="translate(171.5438962433068 41.65193359763276) rotate(0 62.563807356490315 0.8480664023672091)"><path d="M28.2 -9.97 C18.7 -5.04, 9.56 -2.63, 1.41 -1.22 M28.13 -11.03 C18.82 -6.61, 7.18 -3.13, 0.5 -1.21" stroke="#000000" stroke-width="1" fill="none"></path></g><g transform="translate(171.5438962433068 41.65193359763276) rotate(0 62.563807356490315 0.8480664023672091)"><path d="M27.8 10.55 C18.63 8.39, 9.63 3.72, 1.41 -1.22 M27.73 9.49 C18.62 6.28, 7.13 2.14, 0.5 -1.21" stroke="#000000" stroke-width="1" fill="none"></path></g><g transform="translate(171.5438962433068 41.65193359763276) rotate(0 62.563807356490315 0.8480664023672091)"><path d="M95.49 12.68 C105.84 10.86, 116.37 6.78, 125.67 2.65 M95.42 11.62 C107.33 8.83, 116.86 5.34, 124.77 2.67" stroke="#000000" stroke-width="1" fill="none"></path></g><g transform="translate(171.5438962433068 41.65193359763276) rotate(0 62.563807356490315 0.8480664023672091)"><path d="M96.35 -7.82 C106.21 -2.56, 116.44 0.44, 125.67 2.65 M96.28 -8.88 C107.82 -4.05, 117.04 0.08, 124.77 2.67" stroke="#000000" stroke-width="1" fill="none"></path></g></g><g stroke-linecap="round"><g transform="translate(522.7567303723749 45.71646861017308) rotate(0 65.14523752861646 -0.11096992228104341)"><path d="M-0.09 -0.12 C21.87 -0.12, 110.12 -0.28, 131.88 -0.48 M-1.59 -1.22 C20.25 -0.99, 108.84 0.88, 131.27 1" stroke="#000000" stroke-width="1" fill="none"></path></g><g transform="translate(522.7567303723749 45.71646861017308) rotate(0 65.14523752861646 -0.11096992228104341)"><path d="M27.89 -9.37 C19.1 -8.51, 8.94 -3.89, 1.27 -1.09 M28.28 -9.55 C21.54 -7.66, 15.12 -5.05, -0.52 0.58" stroke="#000000" stroke-width="1" fill="none"></path></g><g transform="translate(522.7567303723749 45.71646861017308) rotate(0 65.14523752861646 -0.11096992228104341)"><path d="M27.93 11.15 C19.21 5.62, 9.04 3.85, 1.27 -1.09 M28.32 10.97 C21.41 7.84, 14.98 5.43, -0.52 0.58" stroke="#000000" stroke-width="1" fill="none"></path></g><g transform="translate(522.7567303723749 45.71646861017308) rotate(0 65.14523752861646 -0.11096992228104341)"><path d="M102.74 11.93 C111.63 6.54, 119.05 4.88, 132.63 0.03 M103.14 11.75 C110.05 8.73, 117.45 6.41, 130.84 1.7" stroke="#000000" stroke-width="1" fill="none"></path></g><g transform="translate(522.7567303723749 45.71646861017308) rotate(0 65.14523752861646 -0.11096992228104341)"><path d="M103.04 -8.59 C111.74 -7.59, 119.08 -2.86, 132.63 0.03 M103.43 -8.77 C110.44 -6.77, 117.76 -4.08, 130.84 1.7" stroke="#000000" stroke-width="1" fill="none"></path></g></g></svg>