<svg version="1.1" xmlns="http://www.w3.org/2000/svg" viewBox="0 0 548.2403846153845 421.00000000000006" width="548.2403846153845" height="421.00000000000006">
  <!-- svg-source:excalidraw -->
  
  <defs>
    <style class="style-fonts">
      @font-face {
        font-family: "Virgil";
        src: url("https://excalidraw.com/Virgil.woff2");
      }
      @font-face {
        font-family: "Cascadia";
        src: url("https://excalidraw.com/Cascadia.woff2");
      }
    </style>
  </defs>
  <g stroke-linecap="round" transform="translate(10 10) rotate(0 264.12019230769226 200.50000000000003)"><path d="M-0.53 -0.41 C187.59 -0.58, 375.08 -0.76, 528.39 -0.49 M0.27 0.29 C174.12 2.02, 348.29 1.77, 528.21 -0.37 M528.94 -0.48 C527.68 130.83, 528.43 263.8, 529.12 402.12 M527.85 0.39 C528.47 136.04, 528.24 271.71, 528.67 400.98 M527.54 401.66 C339.72 402.31, 150.32 403.1, -0.71 400.95 M528.59 400.68 C356.41 400.44, 184.63 400.11, 0.38 401.02 M0.79 401.62 C1.52 296.27, 2.9 191.25, -0.23 0.28 M0.47 401.2 C1.01 253.26, 0.92 105.65, -0.24 0.3" stroke="#000000" stroke-width="1" fill="none"></path></g><g transform="translate(247.75904862697303 21.567307692307693) rotate(0 26.36458396911621 8.032852564102566)"><text x="0" y="0" font-family="Virgil, Segoe UI Emoji" font-size="12.852564102564104px" fill="#000000" text-anchor="start" style="white-space: pre;" direction="ltr" dominant-baseline="text-before-edge">ViewPort</text></g><g transform="translate(13.894521355130792 15.141025641025642) rotate(0 15.333333015441895 8.032852564102566)"><text x="0" y="0" font-family="Virgil, Segoe UI Emoji" font-size="12.852564102564104px" fill="#000000" text-anchor="start" style="white-space: pre;" direction="ltr" dominant-baseline="text-before-edge">(0,0)</text></g><g stroke-linecap="round" transform="translate(188.6506410256411 161.0176282051282) rotate(0 86.1121794871795 43.05608974358974)"><path d="M23.09 -1.71 L150.34 1.05 L164.33 2.44 L167.38 10 L169.93 16.46 L171.47 66.38 L168.2 79.53 L162.69 84.17 L151.81 85.59 L20.48 84.67 L9.35 81.2 L4.24 76.66 L0.2 69.17 L1.56 15.17 L3.53 5.63 L10.51 1.16 L22.4 1.38" stroke="none" stroke-width="0" fill="#82c91e"></path><path d="M21.53 0 M21.53 0 C71.92 1.15, 123.63 0.24, 150.7 0 M21.53 0 C65.63 -0.1, 109.31 1.36, 150.7 0 M150.7 0 C164.55 -0.17, 170.65 5.57, 172.22 21.53 M150.7 0 C163.09 -1.04, 174.07 7.05, 172.22 21.53 M172.22 21.53 C171.67 39.24, 170.54 55.3, 172.22 64.58 M172.22 21.53 C173.1 35.28, 172.43 51.16, 172.22 64.58 M172.22 64.58 C170.51 80.08, 164.24 85.47, 150.7 86.11 M172.22 64.58 C171.2 80.37, 167.27 88.31, 150.7 86.11 M150.7 86.11 C101.33 84.18, 49.48 85.51, 21.53 86.11 M150.7 86.11 C121.35 87.25, 93.53 87.45, 21.53 86.11 M21.53 86.11 C8 84.85, -1.75 78.9, 0 64.58 M21.53 86.11 C6.2 87.11, 0.69 77.64, 0 64.58 M0 64.58 C-0.78 52.91, -1.65 42.44, 0 21.53 M0 64.58 C0.84 53.95, 0.27 41.76, 0 21.53 M0 21.53 C-0.86 8.17, 8.69 -0.99, 21.53 0 M0 21.53 C-2.15 5.13, 8.42 1.81, 21.53 0" stroke="#000000" stroke-width="1" fill="none"></path></g><g transform="translate(251.01282051282055 196.0408653846154) rotate(0 23.75 8.03285256410257)"><text x="23.75" y="0" font-family="Virgil, Segoe UI Emoji" font-size="12.852564102564104px" fill="#000000" text-anchor="middle" style="white-space: pre;" direction="ltr" dominant-baseline="text-before-edge">Element</text></g><g mask="url(#mask-ZGnTkq0BqgUgXsQb6p0l_)" stroke-linecap="round"><g transform="translate(15.179777765387144 164.87339743589746) rotate(0 83.92100405876215 0.08968873598630012)"><path d="M0.79 -0.71 C28.85 -1.14, 140.44 -1.42, 168.1 -1.37 M-0.26 1.53 C27.77 1.75, 140 -0.13, 167.69 -0.21" stroke="#000000" stroke-width="1" fill="none"></path></g><g transform="translate(15.179777765387144 164.87339743589746) rotate(0 83.92100405876215 0.08968873598630012)"><path d="M138.43 12.05 C146 6.75, 155.33 6.12, 168.58 0.25 M140.55 11.28 C145.45 9, 150.96 6.7, 167.22 0.62" stroke="#000000" stroke-width="1" fill="none"></path></g><g transform="translate(15.179777765387144 164.87339743589746) rotate(0 83.92100405876215 0.08968873598630012)"><path d="M138.21 -8.47 C146.05 -8.14, 155.43 -3.15, 168.58 0.25 M140.34 -9.24 C145.2 -7.05, 150.75 -4.87, 167.22 0.62" stroke="#000000" stroke-width="1" fill="none"></path></g></g><mask id="mask-ZGnTkq0BqgUgXsQb6p0l_"><rect x="0" y="0" fill="#fff" width="282.2631110987205" height="265.51602564102564"></rect><rect x="73.50269443205389" y="156.51923076923083" fill="#000" width="50.4375" height="16.06570512820513" opacity="1"></rect></mask><g transform="translate(73.50269443205389 156.5192307692308) rotate(0 25.598087392095408 8.443855402652957)"><text x="25.21875" y="0" font-family="Virgil, Segoe UI Emoji" font-size="12.852564102564104px" fill="#000000" text-anchor="middle" style="white-space: pre;" direction="ltr" dominant-baseline="text-before-edge">x / left</text></g><g mask="url(#mask-FjTuh3-NYRL1ADuliR-Ic)" stroke-linecap="round"><g transform="translate(189.3320213551308 15.141025641025642) rotate(0 0.1960876236017839 69.60204533921579)"><path d="M1.06 -0.95 C0.81 22.04, -0.85 115.44, -0.92 138.9 M0.16 1.17 C0.22 24.23, 1.31 117.4, 1.31 140.15" stroke="#000000" stroke-width="1" fill="none"></path></g><g transform="translate(189.3320213551308 15.141025641025642) rotate(0 0.1960876236017839 69.60204533921579)"><path d="M-10.72 110.5 C-6.14 122.91, -0.95 132.71, 0.36 139.48 M-8.45 112.1 C-7 117.89, -4.95 124.77, 1.77 140.08" stroke="#000000" stroke-width="1" fill="none"></path></g><g transform="translate(189.3320213551308 15.141025641025642) rotate(0 0.1960876236017839 69.60204533921579)"><path d="M9.8 110.36 C7.14 123, 5.1 132.85, 0.36 139.48 M12.08 111.97 C9.06 117.88, 6.64 124.78, 1.77 140.08" stroke="#000000" stroke-width="1" fill="none"></path></g></g><mask id="mask-FjTuh3-NYRL1ADuliR-Ic"><rect x="0" y="0" fill="#fff" width="289.3320213551308" height="254.59134615384616"></rect><rect x="166.31118738601458" y="76.83333333333334" fill="#000" width="46.04166793823242" height="16.06570512820513" opacity="1"></rect></mask><g transform="translate(166.31118738601458 76.83333333333334) rotate(0 23.216921592717995 7.909737646908098)"><text x="23.02083396911621" y="0" font-family="Virgil, Segoe UI Emoji" font-size="12.852564102564104px" fill="#000000" text-anchor="middle" style="white-space: pre;" direction="ltr" dominant-baseline="text-before-edge">y / top</text></g><g mask="url(#mask-COwhHtzi51BTa55CAtB30)" stroke-linecap="round"><g transform="translate(380.1925982782077 14.498397435897436) rotate(0 -0.2127136104739975 115.98481604572483)"><path d="M-0.56 -1.1 C-0.7 37.59, -0.66 194.4, -0.54 233.07 M1.34 0.93 C0.97 39.24, -1.46 193.07, -1.77 231.52" stroke="#000000" stroke-width="1" fill="none"></path></g><g transform="translate(380.1925982782077 14.498397435897436) rotate(0 -0.2127136104739975 115.98481604572483)"><path d="M-13.52 202.31 C-6.42 212.74, -6.8 223.46, -1.72 230.18 M-12.15 202.66 C-9.13 211.19, -6.39 219.66, -1.87 231.38" stroke="#000000" stroke-width="1" fill="none"></path></g><g transform="translate(380.1925982782077 14.498397435897436) rotate(0 -0.2127136104739975 115.98481604572483)"><path d="M7 202.56 C7.4 212.82, 0.32 223.45, -1.72 230.18 M8.37 202.91 C5.46 211.38, 2.27 219.78, -1.87 231.38" stroke="#000000" stroke-width="1" fill="none"></path></g></g><mask id="mask-COwhHtzi51BTa55CAtB30"><rect x="0" y="0" fill="#fff" width="480.1925982782077" height="346.48717948717956"></rect><rect x="358.4634322473239" y="122.4599358974359" fill="#000" width="43.45833206176758" height="16.06570512820513" opacity="1"></rect></mask><g transform="translate(358.4634322473239 122.4599358974359) rotate(0 21.51645242040979 8.02327758418636)"><text x="21.72916603088379" y="0" font-family="Virgil, Segoe UI Emoji" font-size="12.852564102564104px" fill="#000000" text-anchor="middle" style="white-space: pre;" direction="ltr" dominant-baseline="text-before-edge">bottom</text></g><g mask="url(#mask-NPuA1FeUWjpK0NDSqH6zI)" stroke-linecap="round"><g transform="translate(15.82240597051532 264.4807692307693) rotate(0 172.82980187925796 0.8368751340698566)"><path d="M0.55 -0.31 C58.11 -0.04, 288.95 1.37, 346.27 1.97 M-0.62 -1.51 C56.8 -1.12, 288.61 2.71, 345.95 3.19" stroke="#000000" stroke-width="1" fill="none"></path></g><g transform="translate(15.82240597051532 264.4807692307693) rotate(0 172.82980187925796 0.8368751340698566)"><path d="M317.12 15.06 C327.35 8.21, 340.33 5.83, 345.77 1.98 M317.19 14.07 C324.82 11.42, 330.28 7.78, 345.6 2.85" stroke="#000000" stroke-width="1" fill="none"></path></g><g transform="translate(15.82240597051532 264.4807692307693) rotate(0 172.82980187925796 0.8368751340698566)"><path d="M317.38 -5.46 C327.57 -4.51, 340.45 0.9, 345.77 1.98 M317.45 -6.45 C324.98 -4.29, 330.38 -3.13, 345.6 2.85" stroke="#000000" stroke-width="1" fill="none"></path></g></g><mask id="mask-NPuA1FeUWjpK0NDSqH6zI"><rect x="0" y="0" fill="#fff" width="460.9137521243615" height="464.4807692307693"></rect><rect x="174.1701620628803" y="257.7331730769231" fill="#000" width="28.39583396911621" height="16.06570512820513" opacity="1"></rect></mask><g transform="translate(174.1701620628803 257.7331730769231) rotate(0 14.482045786892968 7.584471287916017)"><text x="14.197916984558105" y="0" font-family="Virgil, Segoe UI Emoji" font-size="12.852564102564104px" fill="#000000" text-anchor="middle" style="white-space: pre;" direction="ltr" dominant-baseline="text-before-edge">right</text></g></svg>