<svg version="1.2" xmlns="http://www.w3.org/2000/svg" viewBox="0 0 161 125" width="160" height="124">
	<title>新建项目</title>
	<style>
		.s0 { fill: none;stroke: #000000;stroke-width: 2;stroke-dasharray: 8,4 } 
		.s1 { fill: #000000 } 
	</style>
	<ellipse id="形状 1" class="s0" cx="81.5" cy="64.5" rx="70.5" ry="46.5"/>
	<path id="Collaboration" class="s1" aria-label="Collaboration"  d="m33.7 58.9v1.9q-0.9-0.9-1.9-1.3-1-0.4-2.1-0.4-2.3 0-3.5 1.4-1.2 1.4-1.2 4 0 2.5 1.2 3.9 1.2 1.4 3.5 1.4 1.1 0 2.1-0.4 1-0.4 1.9-1.3v1.9q-0.9 0.6-1.9 0.9-1.1 0.4-2.2 0.4-3 0-4.7-1.9-1.8-1.8-1.8-4.9 0-3.2 1.8-5 1.7-1.9 4.7-1.9 1.1 0 2.2 0.4 1 0.3 1.9 0.9zm6.5 3.4q-1.3 0-2 1-0.8 1-0.8 2.8 0 1.8 0.8 2.8 0.7 1 2 1 1.3 0 2.1-1 0.7-1.1 0.7-2.8 0-1.8-0.7-2.8-0.8-1-2.1-1zm0-1.4q2.1 0 3.3 1.4 1.2 1.4 1.2 3.8 0 2.4-1.2 3.8-1.2 1.4-3.3 1.4-2.1 0-3.3-1.4-1.2-1.4-1.2-3.8 0-2.4 1.2-3.8 1.2-1.4 3.3-1.4zm7.2 10.1v-13.7h1.6v13.7zm5 0v-13.7h1.7v13.7zm11-4.9h-1.6q-1.9 0-2.7 0.4-0.7 0.4-0.7 1.5 0 0.9 0.5 1.4 0.6 0.5 1.6 0.5 1.3 0 2.1-0.9 0.8-1 0.8-2.6zm1.7-0.7v5.7h-1.7v-1.5q-0.5 0.9-1.3 1.3-0.9 0.4-2.1 0.4-1.5 0-2.4-0.8-0.9-0.9-0.9-2.3 0-1.7 1.1-2.5 1.2-0.9 3.4-0.9h2.2v-0.1q0-1.1-0.7-1.7-0.7-0.6-2.1-0.6-0.8 0-1.6 0.2-0.8 0.2-1.5 0.6v-1.5q0.8-0.4 1.7-0.5 0.8-0.2 1.6-0.2 2.1 0 3.2 1.1 1.1 1.1 1.1 3.3zm10.3 0.7q0-1.7-0.7-2.7-0.7-1.1-2-1.1-1.3 0-2 1.1-0.8 1-0.8 2.7 0 1.8 0.8 2.9 0.7 1 2 1 1.3 0 2-1 0.7-1.1 0.7-2.9zm-5.5-8.7v5.3q0.6-0.9 1.3-1.3 0.8-0.4 1.9-0.4 1.8 0 2.9 1.4 1.1 1.4 1.1 3.7 0 2.4-1.1 3.8-1.1 1.4-2.9 1.4-1.1 0-1.9-0.4-0.7-0.4-1.3-1.3v1.5h-1.6v-13.7zm13.7 5q-1.3 0-2.1 1-0.7 1-0.7 2.7 0 1.8 0.7 2.8 0.8 1 2.1 1 1.3 0 2-1 0.8-1 0.8-2.8 0-1.7-0.8-2.7-0.7-1-2-1zm0-1.4q2.1 0 3.3 1.4 1.2 1.3 1.2 3.7 0 2.5-1.2 3.8-1.2 1.4-3.3 1.4-2.1 0-3.3-1.4-1.2-1.3-1.2-3.8 0-2.4 1.2-3.7 1.2-1.4 3.3-1.4zm12.9 0.1v1.6q-0.3-0.1-0.6-0.2-0.3-0.1-0.7-0.1-1.4 0-2.1 0.9-0.7 0.9-0.7 2.6v5.2h-1.7v-9.9h1.7v1.5q0.5-0.9 1.3-1.3 0.8-0.4 2-0.4 0.1 0 0.3 0 0.2 0 0.5 0.1zm7.8 5h-1.6q-2 0-2.7 0.5-0.8 0.4-0.8 1.5 0 0.9 0.6 1.4 0.5 0.5 1.5 0.5 1.4 0 2.2-1 0.8-0.9 0.8-2.5zm1.6-0.7v5.6h-1.6v-1.5q-0.6 0.9-1.4 1.4-0.8 0.4-2 0.4-1.5 0-2.4-0.9-0.9-0.8-0.9-2.2 0-1.7 1.1-2.5 1.1-0.9 3.3-0.9h2.3v-0.2q0-1.1-0.8-1.7-0.7-0.6-2-0.6-0.9 0-1.7 0.2-0.8 0.2-1.5 0.6v-1.5q0.9-0.3 1.7-0.5 0.9-0.2 1.6-0.2 2.2 0 3.2 1.1 1.1 1.2 1.1 3.4zm3.3-7h1.6v2.8h3.4v1.2h-3.4v5.4q0 1.2 0.4 1.5 0.3 0.4 1.3 0.4h1.7v1.3h-1.7q-1.9 0-2.6-0.7-0.7-0.7-0.7-2.5v-5.4h-1.2v-1.2h1.2zm7.1 12.6v-9.8h1.6v9.8zm0-11.6v-2.1h1.6v2.1zm8.8 2.9q-1.3 0-2 1-0.8 1-0.8 2.8 0 1.8 0.8 2.8 0.7 1 2 1 1.3 0 2.1-1 0.7-1 0.7-2.8 0-1.7-0.7-2.8-0.8-1-2.1-1zm0-1.4q2.1 0 3.3 1.4 1.3 1.4 1.3 3.8 0 2.4-1.3 3.8-1.2 1.4-3.3 1.4-2.1 0-3.3-1.4-1.2-1.4-1.2-3.8 0-2.4 1.2-3.8 1.2-1.4 3.3-1.4zm15.4 4.2v5.9h-1.6v-5.9q0-1.4-0.5-2.1-0.6-0.7-1.7-0.7-1.3 0-2 0.9-0.8 0.8-0.8 2.3v5.5h-1.6v-9.8h1.6v1.5q0.6-0.9 1.4-1.3 0.7-0.5 1.8-0.5 1.7 0 2.5 1.1 0.9 1 0.9 3.1z"/>
</svg>