<svg version="1.2" xmlns="http://www.w3.org/2000/svg" viewBox="0 0 161 125" width="160" height="124">
	<title>新建项目</title>
	<style>
		.s0 { fill: none;stroke: #000000;stroke-width: 2 } 
		.s1 { fill: #000000 } 
	</style>
	<ellipse id="形状 1" class="s0" cx="81.5" cy="64.5" rx="70.5" ry="46.5"/>
	<path id=" Use  Case" class="s1" aria-label="
Use  Case"  d="m38.4 66.1v-8.2h1.8v7.9q0 2.2 0.8 3.1 0.7 0.9 2.5 0.9 1.7 0 2.4-0.9 0.8-0.9 0.8-3.1v-7.9h1.8v8.2q0 2.5-1.3 3.8-1.3 1.4-3.7 1.4-2.5 0-3.8-1.4-1.3-1.3-1.3-3.8zm19.6-4.7v1.6q-0.7-0.4-1.4-0.6-0.7-0.1-1.5-0.1-1.2 0-1.8 0.3-0.6 0.4-0.6 1.1 0 0.6 0.4 0.9 0.4 0.4 1.7 0.6l0.6 0.2q1.7 0.3 2.4 1 0.7 0.7 0.7 1.9 0 1.4-1 2.2-1.1 0.8-3 0.8-0.8 0-1.7-0.2-0.8-0.2-1.8-0.5v-1.6q0.9 0.4 1.8 0.7 0.9 0.2 1.7 0.2 1.2 0 1.8-0.4 0.6-0.4 0.6-1.1 0-0.7-0.5-1-0.4-0.4-1.9-0.7l-0.6-0.1q-1.5-0.3-2.1-1-0.7-0.6-0.7-1.8 0-1.4 1-2.1 1-0.8 2.8-0.8 0.9 0 1.7 0.2 0.7 0.1 1.4 0.3zm11.5 4.3v0.8h-7.4q0.1 1.6 1 2.5 0.9 0.9 2.5 0.9 1 0 1.8-0.2 0.9-0.3 1.8-0.7v1.5q-0.9 0.4-1.8 0.6-0.9 0.2-1.9 0.2-2.3 0-3.7-1.4-1.4-1.4-1.4-3.7 0-2.4 1.3-3.9 1.3-1.4 3.5-1.4 2 0 3.2 1.3 1.1 1.3 1.1 3.5zm-7.3-0.5h5.7q0-1.3-0.7-2.1-0.7-0.8-1.9-0.8-1.4 0-2.2 0.8-0.8 0.7-0.9 2.1zm31.3-6.3v1.9q-0.9-0.9-1.9-1.3-1-0.4-2.1-0.4-2.3 0-3.5 1.4-1.2 1.4-1.2 4 0 2.5 1.2 3.9 1.2 1.4 3.5 1.4 1.1 0 2.1-0.4 1-0.4 1.9-1.3v1.9q-0.9 0.6-1.9 0.9-1.1 0.4-2.2 0.4-3 0-4.7-1.9-1.7-1.8-1.7-4.9 0-3.2 1.7-5 1.7-1.9 4.7-1.9 1.1 0 2.2 0.4 1 0.3 1.9 0.9zm8.8 7.2h-1.6q-2 0-2.7 0.4-0.8 0.4-0.8 1.5 0 0.9 0.6 1.4 0.5 0.5 1.5 0.5 1.4 0 2.2-0.9 0.8-1 0.8-2.6zm1.6-0.7v5.7h-1.6v-1.5q-0.6 0.9-1.4 1.3-0.8 0.4-2 0.4-1.5 0-2.4-0.8-0.9-0.9-0.9-2.3 0-1.7 1.1-2.5 1.1-0.9 3.3-0.9h2.3v-0.1q0-1.1-0.8-1.7-0.7-0.6-2-0.6-0.9 0-1.7 0.2-0.8 0.2-1.5 0.6v-1.5q0.9-0.4 1.7-0.5 0.9-0.2 1.7-0.2 2.1 0 3.1 1.1 1.1 1.1 1.1 3.3zm9.6-3.9v1.5q-0.7-0.3-1.4-0.5-0.8-0.2-1.5-0.2-1.2 0-1.9 0.4-0.6 0.4-0.6 1.1 0 0.6 0.5 0.9 0.4 0.3 1.7 0.6l0.6 0.1q1.7 0.4 2.4 1.1 0.7 0.6 0.7 1.8 0 1.4-1.1 2.2-1 0.8-2.9 0.8-0.8 0-1.7-0.1-0.8-0.2-1.8-0.5v-1.7q0.9 0.5 1.8 0.7 0.9 0.3 1.7 0.3 1.1 0 1.8-0.4 0.6-0.4 0.6-1.1 0-0.7-0.5-1-0.4-0.4-1.9-0.7l-0.6-0.2q-1.5-0.3-2.1-0.9-0.7-0.7-0.7-1.8 0-1.4 1-2.2 1-0.7 2.8-0.7 0.9 0 1.7 0.1 0.7 0.1 1.4 0.4zm11.5 4.2v0.8h-7.4q0.1 1.7 1 2.6 0.9 0.8 2.5 0.8 0.9 0 1.8-0.2 0.9-0.2 1.8-0.7v1.6q-0.9 0.3-1.8 0.5-0.9 0.2-1.9 0.2-2.3 0-3.7-1.4-1.4-1.3-1.4-3.7 0-2.4 1.3-3.8 1.3-1.4 3.5-1.4 2 0 3.2 1.3 1.1 1.2 1.1 3.4zm-7.4-0.4h5.8q0-1.4-0.7-2.2-0.8-0.7-1.9-0.7-1.4 0-2.2 0.7-0.8 0.8-1 2.2z"/>
</svg>