<svg version="1.2" xmlns="http://www.w3.org/2000/svg" viewBox="0 0 161 125" width="160" height="124">
	<title>新建项目</title>
	<style>
		.s0 { fill: #000000 } 
		.s1 { fill: none;stroke: #000000 } 
	</style>
	<path id="Attributes" class="s0" aria-label="Attributes"  d="m42.1 63.2l-2.4-6.6-2.4 6.6zm-8.4 4.8l5-13.1h2l5 13.1h-1.8l-1.2-3.4h-5.9l-1.2 3.4zm13.5-12.6h1.6v2.8h3.3v1.2h-3.3v5.4q0 1.2 0.3 1.5 0.4 0.3 1.4 0.3h1.6v1.4h-1.6q-1.9 0-2.6-0.7-0.7-0.7-0.7-2.5v-5.4h-1.2v-1.2h1.2zm7 0h1.7v2.8h3.3v1.2h-3.3v5.4q0 1.2 0.3 1.5 0.3 0.3 1.3 0.3h1.7v1.4h-1.7q-1.8 0-2.5-0.7-0.8-0.7-0.8-2.5v-5.4h-1.1v-1.2h1.1zm12.8 2.6v1.7q-0.2-0.2-0.6-0.3-0.3 0-0.7 0-1.3 0-2.1 0.8-0.7 0.9-0.7 2.6v5.2h-1.6v-9.9h1.6v1.6q0.5-0.9 1.3-1.4 0.8-0.4 2-0.4 0.2 0 0.4 0 0.2 0.1 0.4 0.1zm1.7 10v-9.9h1.6v9.9zm0-11.6v-2.1h1.7v2.1zm12 6.7q0-1.8-0.7-2.8-0.7-1-2-1-1.3 0-2 1-0.8 1-0.8 2.8 0 1.8 0.8 2.8 0.7 1 2 1 1.3 0 2-1 0.7-1 0.7-2.8zm-5.5-8.8v5.3q0.5-0.8 1.3-1.3 0.8-0.4 1.9-0.4 1.8 0 2.9 1.4 1.1 1.5 1.1 3.8 0 2.3-1.1 3.7-1.1 1.4-2.9 1.4-1.1 0-1.9-0.4-0.8-0.4-1.3-1.3v1.5h-1.6v-13.7zm9.7 9.8v-6h1.6v5.9q0 1.4 0.6 2.1 0.5 0.7 1.6 0.7 1.3 0 2.1-0.8 0.7-0.8 0.7-2.3v-5.6h1.6v9.9h-1.6v-1.5q-0.6 0.9-1.3 1.3-0.8 0.4-1.9 0.4-1.6 0-2.5-1-0.9-1.1-0.9-3.1zm4.1-6.2zm7.4-2.5h1.7v2.7h3.3v1.3h-3.3v5.3q0 1.3 0.3 1.6 0.3 0.3 1.3 0.3h1.7v1.4h-1.7q-1.8 0-2.5-0.7-0.8-0.7-0.8-2.6v-5.3h-1.1v-1.3h1.1zm15.5 7.4v0.7h-7.4q0.1 1.7 1 2.6 0.9 0.9 2.5 0.9 1 0 1.8-0.3 0.9-0.2 1.8-0.6v1.5q-0.9 0.4-1.8 0.5-0.9 0.2-1.9 0.2-2.3 0-3.7-1.3-1.4-1.4-1.4-3.7 0-2.5 1.3-3.9 1.3-1.4 3.6-1.4 1.9 0 3.1 1.3 1.1 1.3 1.1 3.5zm-7.3-0.5h5.7q0-1.3-0.7-2.1-0.7-0.8-1.9-0.8-1.4 0-2.2 0.7-0.8 0.8-0.9 2.2zm16.3-3.8v1.6q-0.7-0.4-1.4-0.6-0.8-0.1-1.6-0.1-1.2 0-1.8 0.3-0.6 0.4-0.6 1.1 0 0.6 0.4 0.9 0.5 0.3 1.8 0.6l0.5 0.2q1.8 0.3 2.5 1 0.7 0.7 0.7 1.9 0 1.3-1.1 2.1-1.1 0.8-3 0.8-0.8 0-1.6-0.1-0.9-0.2-1.8-0.5v-1.6q0.9 0.4 1.7 0.7 0.9 0.2 1.8 0.2 1.1 0 1.7-0.4 0.6-0.4 0.6-1.1 0-0.7-0.4-1-0.4-0.4-1.9-0.7l-0.6-0.1q-1.5-0.3-2.2-1-0.6-0.7-0.6-1.8 0-1.4 0.9-2.1 1-0.8 2.8-0.8 0.9 0 1.7 0.1 0.8 0.2 1.5 0.4z"/>
	<path id="Functions" class="s0" aria-label="Functions"  d="m36.8 103v-13.1h7.5v1.5h-5.7v3.8h5.2v1.5h-5.2v6.3zm9.1-3.9v-5.9h1.6v5.9q0 1.4 0.6 2.1 0.5 0.6 1.6 0.6 1.3 0 2.1-0.8 0.7-0.8 0.7-2.3v-5.5h1.6v9.8h-1.6v-1.5q-0.6 0.9-1.3 1.3-0.8 0.5-1.8 0.5-1.7 0-2.6-1.1-0.9-1.1-0.9-3.1zm4.1-6.2zm15.7 4.2v5.9h-1.7v-5.9q0-1.4-0.5-2.1-0.5-0.7-1.6-0.7-1.3 0-2.1 0.9-0.8 0.8-0.8 2.2v5.6h-1.6v-9.8h1.6v1.5q0.6-0.9 1.4-1.3 0.8-0.5 1.8-0.5 1.7 0 2.6 1.1 0.9 1 0.9 3.1zm10.3-3.6v1.5q-0.7-0.3-1.4-0.5-0.7-0.2-1.4-0.2-1.6 0-2.4 1-0.9 1-0.9 2.8 0 1.8 0.9 2.8 0.8 1 2.4 1 0.7 0 1.4-0.2 0.7-0.2 1.4-0.6v1.5q-0.7 0.3-1.4 0.5-0.8 0.2-1.6 0.2-2.2 0-3.5-1.4-1.3-1.4-1.3-3.8 0-2.4 1.3-3.8 1.3-1.4 3.6-1.4 0.8 0 1.5 0.2 0.7 0.1 1.4 0.4zm2.8-3.1h1.6v2.8h3.3v1.2h-3.3v5.4q0 1.2 0.3 1.5 0.3 0.3 1.4 0.3h1.6v1.4h-1.6q-1.9 0-2.6-0.7-0.7-0.7-0.7-2.5v-5.4h-1.2v-1.2h1.2zm7 12.6v-9.8h1.7v9.8zm0-11.6v-2.1h1.6v2.1zm8.8 2.9q-1.3 0-2.1 1-0.7 1-0.7 2.8 0 1.7 0.7 2.8 0.8 1 2.1 1 1.3 0 2-1 0.8-1.1 0.8-2.8 0-1.8-0.8-2.8-0.7-1-2-1zm0-1.4q2.1 0 3.3 1.4 1.2 1.4 1.2 3.8 0 2.4-1.2 3.8-1.2 1.3-3.3 1.3-2.1 0-3.3-1.3-1.2-1.4-1.2-3.8 0-2.4 1.2-3.8 1.2-1.4 3.3-1.4zm15.4 4.2v5.9h-1.6v-5.9q0-1.4-0.6-2.1-0.5-0.7-1.6-0.7-1.3 0-2.1 0.9-0.7 0.8-0.7 2.2v5.6h-1.7v-9.8h1.7v1.5q0.5-0.9 1.3-1.3 0.8-0.5 1.8-0.5 1.7 0 2.6 1.1 0.9 1 0.9 3.1zm9.5-3.7v1.6q-0.7-0.4-1.5-0.6-0.7-0.1-1.5-0.1-1.2 0-1.8 0.3-0.6 0.4-0.6 1.1 0 0.6 0.4 0.9 0.5 0.3 1.8 0.6l0.5 0.2q1.8 0.3 2.5 1 0.7 0.7 0.7 1.9 0 1.4-1.1 2.2-1.1 0.7-3 0.7-0.8 0-1.6-0.1-0.9-0.2-1.8-0.5v-1.6q0.9 0.4 1.7 0.7 0.9 0.2 1.8 0.2 1.1 0 1.7-0.4 0.6-0.4 0.6-1.1 0-0.7-0.4-1-0.4-0.4-2-0.7l-0.5-0.1q-1.5-0.3-2.2-1-0.7-0.6-0.7-1.8 0-1.4 1-2.1 1-0.8 2.8-0.8 0.9 0 1.7 0.1 0.8 0.2 1.5 0.4z"/>
	<path id="Class" class="s0" aria-label="Class"  d="m66.9 20.9v1.9q-0.9-0.9-1.9-1.3-1-0.4-2.2-0.4-2.2 0-3.4 1.4-1.2 1.4-1.2 4 0 2.5 1.2 3.9 1.2 1.4 3.4 1.4 1.2 0 2.2-0.4 1-0.4 1.9-1.3v1.9q-0.9 0.6-2 0.9-1 0.4-2.2 0.4-2.9 0-4.7-1.9-1.7-1.8-1.7-4.9 0-3.2 1.7-5 1.8-1.9 4.7-1.9 1.2 0 2.3 0.4 1 0.3 1.9 0.9zm2.7 12.1v-13.7h1.6v13.7zm11.1-4.9h-1.6q-2 0-2.7 0.4-0.8 0.4-0.8 1.5 0 0.9 0.6 1.4 0.5 0.5 1.5 0.5 1.4 0 2.2-0.9 0.8-1 0.8-2.6zm1.6-0.7v5.7h-1.6v-1.5q-0.6 0.9-1.4 1.3-0.8 0.4-2 0.4-1.5 0-2.4-0.8-0.9-0.9-0.9-2.3 0-1.7 1.1-2.5 1.1-0.9 3.3-0.9h2.3v-0.1q0-1.1-0.8-1.7-0.7-0.6-2-0.6-0.9 0-1.7 0.2-0.8 0.2-1.5 0.6v-1.5q0.9-0.4 1.7-0.5 0.9-0.2 1.7-0.2 2.1 0 3.1 1.1 1.1 1.1 1.1 3.3zm9.6-3.9v1.5q-0.7-0.3-1.4-0.5-0.8-0.2-1.5-0.2-1.2 0-1.9 0.4-0.6 0.4-0.6 1.1 0 0.6 0.5 0.9 0.4 0.3 1.7 0.6l0.6 0.1q1.7 0.4 2.4 1.1 0.7 0.6 0.7 1.8 0 1.4-1.1 2.2-1 0.8-2.9 0.8-0.8 0-1.7-0.1-0.8-0.2-1.8-0.5v-1.7q0.9 0.5 1.8 0.7 0.9 0.3 1.7 0.3 1.1 0 1.8-0.4 0.6-0.4 0.6-1.1 0-0.7-0.5-1-0.4-0.4-1.9-0.7l-0.6-0.2q-1.5-0.3-2.1-0.9-0.7-0.7-0.7-1.8 0-1.4 1-2.2 1-0.7 2.8-0.7 0.9 0 1.7 0.1 0.7 0.1 1.4 0.4zm9.4 0v1.5q-0.7-0.3-1.4-0.5-0.8-0.2-1.6-0.2-1.2 0-1.8 0.4-0.6 0.4-0.6 1.1 0 0.6 0.5 0.9 0.4 0.3 1.7 0.6l0.5 0.1q1.8 0.4 2.5 1.1 0.7 0.6 0.7 1.8 0 1.4-1.1 2.2-1.1 0.8-3 0.8-0.7 0-1.6-0.1-0.9-0.2-1.8-0.5v-1.7q0.9 0.5 1.8 0.7 0.8 0.3 1.7 0.3 1.1 0 1.7-0.4 0.7-0.4 0.7-1.1 0-0.7-0.5-1-0.4-0.4-1.9-0.7l-0.6-0.2q-1.5-0.3-2.2-0.9-0.6-0.7-0.6-1.8 0-1.4 0.9-2.2 1-0.7 2.8-0.7 0.9 0 1.7 0.1 0.8 0.1 1.5 0.4z"/>
	<path id="形状 2" class="s1" d="m16 9h125v35h-125z"/>
	<path id="形状 2 copy" class="s1" d="m16 79h125v35h-125z"/>
	<path id="形状 2 copy 2" class="s1" d="m16 44h125v35h-125z"/>
	<path id="形状 1" class="s1" d="m7 9h8.9v105h-8.9z"/>
	<path id="形状 1 copy" class="s1" d="m141 9h8.9v105h-8.9z"/>
</svg>